<?xml version="1.0" encoding="utf-8"?>
<!-- Generator: Adobe Illustrator 22.1.0, SVG Export Plug-In . SVG Version: 6.00 Build 0)  -->
<svg version="1.1" xmlns="http://www.w3.org/2000/svg" xmlns:xlink="http://www.w3.org/1999/xlink" x="0px" y="0px"
	 viewBox="0 0 351.3 409.6" style="enable-background:new 0 0 351.3 409.6;" xml:space="preserve">
<style type="text/css">
	.st0{fill:#707070;}
	.st1{fill:none;stroke:#FFFFFF;stroke-miterlimit:10;}
	.st2{fill:#AEB0AF;}
	.st3{fill:url(#SVGID_1_);}
	.st4{fill:url(#SVGID_2_);}
	.st5{fill:#000206;}
	.st6{fill:#F03335;}
	.st7{fill:#FFFFFF;stroke:#FFFFFF;stroke-miterlimit:10;}
	.st8{fill:#FEBE10;}
	.st9{fill:#A67C52;}
	.st10{opacity:0.89;}
	.st11{fill:url(#SVGID_3_);}
	.st12{fill:url(#SVGID_4_);}
	.st13{fill:url(#SVGID_5_);}
	.st14{fill:#F0493E;}
	.st15{fill:#1F8DC5;}
	.st16{fill:#014080;stroke:#FFFFFF;stroke-width:4;stroke-miterlimit:10;}
	.st17{fill:url(#SVGID_6_);}
	.st18{fill:url(#SVGID_7_);}
	.st19{font-family:'ArialMT';}
	.st20{font-size:16.93px;}
	.st21{fill:url(#SVGID_8_);}
	.st22{fill:url(#SVGID_9_);}
	.st23{fill:url(#SVGID_10_);}
	.st24{fill:none;stroke:#FFFFFF;stroke-width:2;stroke-miterlimit:10;}
	.st25{fill:none;stroke:#FFFFFF;stroke-width:0.5;stroke-miterlimit:10;}
	.st26{font-family:'TimesNewRomanPS-BoldItalicMT';}
	.st27{font-size:74.814px;}
</style>
<g id="Layer_1">
	<g id="Layer_4_1_">
	</g>
	<g id="Layer_3">
		<path class="st0" d="M-195.9,52.5c-14.1,0-25.6,11.5-25.6,25.6c10.8,0.2,30.2,0.5,51.2,0C-170.3,63.9-181.8,52.5-195.9,52.5z
			 M-196.1,73.1c-4.2,0-7.7-3.4-7.7-7.7c0-4.2,3.4-7.7,7.7-7.7c4.2,0,7.7,3.4,7.7,7.7C-188.5,69.7-191.9,73.1-196.1,73.1z"/>
	</g>
	<circle class="st1" cx="-143.7" cy="255.8" r="10.1"/>
	<g id="Layer_2_1_">
		<path class="st2" d="M-138.1,285.6c-0.1-8.5-16.6-15.9-16.6-15.9v-9h-2.4v-5h-5.8v-8l2.9-2.5v-3.9l-0.6-2.1v-2.5l0.6-2.3v-5.8
			l-2.9-3.2v-4.8l5.8-5.3v-5.6l-5.8-3.5v-5.6l-19.1-0.1l0.3,67.1l-3.7,3.5v21l2.6,3.2c0,0,35.8,0.5,39.4,0s5.3-4.5,5.3-4.5
			S-138,294-138.1,285.6z M-174.4,288.4c-2.3,0-4.1-1.8-4.1-4.1c0-2.3,1.8-4.1,4.1-4.1c2.3,0,4.1,1.8,4.1,4.1
			C-170.3,286.5-172.2,288.4-174.4,288.4z"/>
		<path class="st2" d="M-209.9,267.8l0.3-67.1h-19.2v5.6l-5.8,3.5v5.6l5.8,5.3v4.8l-2.9,3.2v5.8l0.6,2.3v2.5l-0.6,2.1v3.9l2.9,2.5v8
			h-5.8v5h-2.4v9c0,0-16.4,7.5-16.6,16s0,5.3,0,5.3s1.6,4,5.3,4.5s39.4,0,39.4,0l2.6-3.2v-21L-209.9,267.8z M-216.9,288.4
			c-2.3,0-4.1-1.8-4.1-4.1c0-2.3,1.8-4.1,4.1-4.1s4.1,1.8,4.1,4.1C-212.8,286.5-214.7,288.4-216.9,288.4z"/>
		<linearGradient id="SVGID_1_" gradientUnits="userSpaceOnUse" x1="-169.2188" y1="233.1812" x2="-161.7731" y2="233.1812">
			<stop  offset="0" style="stop-color:#FFFFFF"/>
			<stop  offset="0.1036" style="stop-color:#CFCFCF;stop-opacity:0.9689"/>
			<stop  offset="0.2352" style="stop-color:#999999;stop-opacity:0.9294"/>
			<stop  offset="0.3682" style="stop-color:#6A6A6A;stop-opacity:0.8896"/>
			<stop  offset="0.4998" style="stop-color:#444444;stop-opacity:0.8501"/>
			<stop  offset="0.6296" style="stop-color:#262626;stop-opacity:0.8111"/>
			<stop  offset="0.7574" style="stop-color:#111111;stop-opacity:0.7728"/>
			<stop  offset="0.882" style="stop-color:#040404;stop-opacity:0.7354"/>
			<stop  offset="1" style="stop-color:#000000;stop-opacity:0.7"/>
		</linearGradient>
		<path class="st3" d="M-168.1,200.5h1.1c0.6,0,1.1,0.6,1.1,1.3v59.2c0,0.7,0.5,1.3,1.1,1.3h1.9c0.6,0,1.1,0.6,1.1,1.3v1.2
			c0,0.7-0.5,1.3-1.1,1.3h-4.7h-0.5c-0.6,0-1.1-0.6-1.1-1.3V264v-62.3C-169.2,201.1-168.7,200.5-168.1,200.5z"/>
		<linearGradient id="SVGID_2_" gradientUnits="userSpaceOnUse" x1="-220.3422" y1="233.1431" x2="-227.7874" y2="233.2255">
			<stop  offset="0" style="stop-color:#FFFFFF"/>
			<stop  offset="9.759391e-02" style="stop-color:#F9F9F9;stop-opacity:0.9707"/>
			<stop  offset="0.2217" style="stop-color:#EAEAEA;stop-opacity:0.9335"/>
			<stop  offset="0.36" style="stop-color:#D0D0D0;stop-opacity:0.892"/>
			<stop  offset="0.5087" style="stop-color:#ABABAB;stop-opacity:0.8474"/>
			<stop  offset="0.6658" style="stop-color:#7D7D7D;stop-opacity:0.8003"/>
			<stop  offset="0.83" style="stop-color:#434343;stop-opacity:0.751"/>
			<stop  offset="0.9971" style="stop-color:#010101;stop-opacity:0.7009"/>
			<stop  offset="1" style="stop-color:#000000;stop-opacity:0.7"/>
		</linearGradient>
		<path class="st4" d="M-223.2,200.5h-1.1c-0.6,0-1.1,0.6-1.1,1.3v59.2c0,0.7-0.5,1.3-1.1,1.3h-1.9c-0.6,0-1.1,0.6-1.1,1.3v1.2
			c0,0.7,0.5,1.3,1.1,1.3h4.7h0.5c0.6,0,1.1-0.6,1.1-1.3V264v-62.3C-222.1,201.1-222.6,200.5-223.2,200.5z"/>
	</g>
	<g id="Layer_1_1_">
		<title>antobot_icon</title>
		<g id="base">
			<path class="st5" d="M-153.4,210.3h-85.4c-8.9,0-16.2-7.3-16.2-16.2V90c0-8.9,7.3-16.2,16.2-16.2h85.4c8.9,0,16.2,7.3,16.2,16.2
				v104.1C-137.2,203.1-144.4,210.3-153.4,210.3z"/>
			<path class="st1" d="M-223,93.5h17.2c2.2,0,4,1.8,4,4v19.2c0,2.2-1.8,4-4,4H-223c-2.2,0-4-1.8-4-4V97.4
				C-226.9,95.3-225.2,93.5-223,93.5z"/>
			<path class="st1" d="M-185.5,93.5h17.2c2.2,0,4,1.8,4,4v19.2c0,2.2-1.8,4-4,4h-17.2c-2.2,0-4-1.8-4-4V97.4
				C-189.4,95.3-187.6,93.5-185.5,93.5z"/>
		</g>
		<g id="Layer_4">
			<path class="st6" d="M-124.5,47.8C-155.2,11.2-204,16.1-216.1,18c-1.6,0.2-3-0.8-3.4-2.3l0,0c-0.4-1.6,0.7-3.2,2.3-3.6
				c0.1,0,0.1,0,0.2,0c11.2-1.7,22.6-2,33.8-0.7c26.2,3,48,14.2,63.3,32.5c1.1,1.3,0.9,3.2-0.3,4.2l-0.1,0.1l0,0
				C-121.6,49.2-123.4,49-124.5,47.8z"/>
			<path class="st6" d="M-140.5,51.8c-22.3-26.6-57.8-23.1-66.5-21.7c-1.1,0.2-2.2-0.6-2.5-1.7l0,0c-0.3-1.2,0.5-2.3,1.7-2.6h0.1
				c8.1-1.2,16.4-1.4,24.6-0.5c19,2.2,34.9,10.4,46,23.6c0.8,0.9,0.7,2.3-0.3,3.1c0,0,0,0-0.1,0l0,0
				C-138.4,52.8-139.8,52.7-140.5,51.8z"/>
			<path class="st6" d="M-161.7,54.7c-10.2-12.3-26.6-10.6-30.6-10c-0.5,0.1-1-0.3-1.1-0.8l0,0c-0.1-0.5,0.2-1.1,0.8-1.2
				c0,0,0,0,0.1,0c3.7-0.6,7.5-0.6,11.3-0.2c8.7,1,16,4.8,21.1,10.9c0.4,0.4,0.3,1.1-0.1,1.4l0,0l0,0
				C-160.7,55.1-161.3,55.1-161.7,54.7z"/>
		</g>
		<circle class="st6" cx="-196.3" cy="134.2" r="6.9"/>
		<text transform="matrix(1 0 0 1 -149.5821 261.5247)" class="st7 st19 st20">R</text>
	</g>
	
		<image style="overflow:visible;" width="480" height="480" xlink:href="../../../../../Desktop/antotech/antotech logo.jpg"  transform="matrix(0.4087 0 0 0.4087 -742.8389 -98.0862)">
	</image>
	<path class="st8" d="M-102,153c-0.6-5.6-2.6-10.4-4.7-13.2c0.5-1.3,0.3-2.8-0.7-4l-1.8-2.3c1.4-2.8,2.1-5.8,2.1-9
		c0-11-8.8-20-19.6-20c-3.3,0-6.6,0.9-9.4,2.5c-0.4,0.2-1-0.1-1-0.6v35.1c3.1,2,6.7,3,10.4,3c0.3,0,0.6,0,0.9,0l2.7,3.5
		c0.7,0.9,1.7,1.5,2.8,1.6c0.6,0.1,1.1,0,1.6-0.1c2.1,2.5,2.8,4.9,1.9,10.7c-0.7,5-7.1,12.3-9.5,14.7l-0.3,0.3
		c-0.3,0.3-0.5,0.7-0.5,1.1v8.1c0,0.6,0.5,1.1,1.1,1.1h8.1c0.3,0,0.6-0.1,0.8-0.3l0.4-0.3C-103,173.3-101.2,161.1-102,153z
		 M-121.2,119.8l-9.2,6.1c-0.6,0.4-1.5,0.2-1.9-0.4c-0.4-0.6-0.2-1.5,0.4-1.9l2.2-1.4c-0.9-0.8-1.3-2-0.9-3.2
		c0.5-1.7,2.2-2.6,3.9-2.1c1,0.3,1.8,1.1,2.1,2l2-1.3c0.6-0.4,1.5-0.2,1.9,0.4C-120.4,118.5-120.6,119.4-121.2,119.8z"/>
	<g>
		<path class="st9" d="M-121.8,177.6c0.3,0.3,0.8,0.3,1.1,0c5.5-5.4,11.8-13.6,11.3-23.3c-0.2-4.5-1.9-7.7-2.7-9.1
			c-0.2-0.4-0.8-0.5-1.2-0.2l-0.6,0.5l0.6-0.5l0,0c-0.3,0.2-0.4,0.7-0.2,1c0.7,1.2,2.3,4.2,2.5,8.4c0.3,7.2-3.4,14.7-10.8,21.9
			C-122,176.8-122.1,177.3-121.8,177.6L-121.8,177.6z"/>
	</g>
	<path class="st8" d="M-275.1,184.9l0.4,0.3c0.2,0.2,0.5,0.3,0.8,0.3h8.1c0.6,0,1.1-0.5,1.1-1.1v-8.1c0-0.4-0.2-0.8-0.5-1.1
		l-0.3-0.3c-2.4-2.4-8.8-9.6-9.5-14.7c-0.8-5.8-0.1-8.2,1.9-10.7c0.5,0.1,1.1,0.2,1.6,0.1c1.1-0.1,2.1-0.7,2.8-1.6l2.7-3.5
		c0.3,0,0.6,0,0.9,0c3.7,0,7.3-1.1,10.4-3v-35.1c0,0.5-0.5,0.8-1,0.6c-2.8-1.6-6.1-2.5-9.4-2.5c-10.8,0-19.6,9-19.6,20
		c0,3.1,0.7,6.2,2.1,9l-1.8,2.3c-0.9,1.2-1.1,2.7-0.7,4c-2.1,2.8-4.1,7.7-4.7,13.2C-290.5,161.1-288.6,173.3-275.1,184.9z
		 M-270.8,117.9c0.4-0.6,1.3-0.8,1.9-0.4l2,1.3c0.3-0.9,1.1-1.7,2.1-2c1.7-0.5,3.4,0.4,3.9,2.1c0.4,1.2,0,2.5-0.9,3.2l2.2,1.4
		c0.6,0.4,0.8,1.3,0.4,1.9c-0.4,0.6-1.3,0.8-1.9,0.4l-9.2-6.1C-271.1,119.4-271.3,118.5-270.8,117.9z"/>
	<g>
		<path class="st9" d="M-269.9,177.6c-0.3,0.3-0.8,0.3-1.1,0c-5.5-5.4-11.8-13.6-11.3-23.3c0.2-4.5,1.9-7.7,2.7-9.1
			c0.2-0.4,0.8-0.5,1.2-0.2l0.6,0.5l-0.6-0.5l0,0c0.3,0.2,0.4,0.7,0.2,1c-0.7,1.2-2.3,4.2-2.5,8.4c-0.3,7.2,3.4,14.7,10.8,21.9
			C-269.6,176.8-269.6,177.3-269.9,177.6L-269.9,177.6z"/>
	</g>
	<g class="st10">
		<linearGradient id="SVGID_3_" gradientUnits="userSpaceOnUse" x1="-196.1218" y1="159.2784" x2="-196.0671" y2="144.9146">
			<stop  offset="0" style="stop-color:#FFFFFF"/>
			<stop  offset="2.861995e-02" style="stop-color:#E8E8E8"/>
			<stop  offset="9.635282e-02" style="stop-color:#B8B8B8"/>
			<stop  offset="0.1697" style="stop-color:#8C8C8C"/>
			<stop  offset="0.2469" style="stop-color:#666666"/>
			<stop  offset="0.3291" style="stop-color:#474747"/>
			<stop  offset="0.4178" style="stop-color:#2D2D2D"/>
			<stop  offset="0.5155" style="stop-color:#191919"/>
			<stop  offset="0.6268" style="stop-color:#0B0B0B"/>
			<stop  offset="0.7635" style="stop-color:#020202"/>
			<stop  offset="1" style="stop-color:#000000"/>
		</linearGradient>
		<path class="st11" d="M-236.4,159.9h40.3h40.3c0.6,0,1-0.8,1-1.7c0-0.9-0.5-1.7-1-1.7h-40.3h-40.3c-0.6,0-1,0.8-1,1.7
			C-237.4,159.1-236.9,159.9-236.4,159.9z"/>
		<linearGradient id="SVGID_4_" gradientUnits="userSpaceOnUse" x1="-196.3218" y1="184.9056" x2="-196.2671" y2="170.5419">
			<stop  offset="0" style="stop-color:#FFFFFF"/>
			<stop  offset="2.861995e-02" style="stop-color:#E8E8E8"/>
			<stop  offset="9.635282e-02" style="stop-color:#B8B8B8"/>
			<stop  offset="0.1697" style="stop-color:#8C8C8C"/>
			<stop  offset="0.2469" style="stop-color:#666666"/>
			<stop  offset="0.3291" style="stop-color:#474747"/>
			<stop  offset="0.4178" style="stop-color:#2D2D2D"/>
			<stop  offset="0.5155" style="stop-color:#191919"/>
			<stop  offset="0.6268" style="stop-color:#0B0B0B"/>
			<stop  offset="0.7635" style="stop-color:#020202"/>
			<stop  offset="1" style="stop-color:#000000"/>
		</linearGradient>
		<path class="st12" d="M-236.6,185.5h40.3h40.3c0.6,0,1-0.8,1-1.7s-0.5-1.7-1-1.7h-40.3h-40.3c-0.6,0-1,0.8-1,1.7
			S-237.1,185.5-236.6,185.5z"/>
		<linearGradient id="SVGID_5_" gradientUnits="userSpaceOnUse" x1="-196.1218" y1="172.092" x2="-196.0671" y2="157.7282">
			<stop  offset="0" style="stop-color:#FFFFFF"/>
			<stop  offset="2.861995e-02" style="stop-color:#E8E8E8"/>
			<stop  offset="9.635282e-02" style="stop-color:#B8B8B8"/>
			<stop  offset="0.1697" style="stop-color:#8C8C8C"/>
			<stop  offset="0.2469" style="stop-color:#666666"/>
			<stop  offset="0.3291" style="stop-color:#474747"/>
			<stop  offset="0.4178" style="stop-color:#2D2D2D"/>
			<stop  offset="0.5155" style="stop-color:#191919"/>
			<stop  offset="0.6268" style="stop-color:#0B0B0B"/>
			<stop  offset="0.7635" style="stop-color:#020202"/>
			<stop  offset="1" style="stop-color:#000000"/>
		</linearGradient>
		<path class="st13" d="M-236.4,172.7h40.3h40.3c0.6,0,1-0.8,1-1.7c0-0.9-0.5-1.7-1-1.7h-40.3h-40.3c-0.6,0-1,0.8-1,1.7
			C-237.4,171.9-236.9,172.7-236.4,172.7z"/>
	</g>
	<path class="st14" d="M-206.2,111.8v-0.6c0-2.3-1.3-4.5-3.4-5.6V101c0-2.5-1.8-4.7-4.2-5h-1.2c-2.4,0.3-4.3,2.3-4.3,4.8l0,4.8l0,0
		c-0.3,0.1-0.6,0.2-0.9,0.4l-0.1,0.1c-1.5,1.2-2.4,3-2.4,4.9v0.6c0,3.5,2.8,6.4,6.4,6.4h3.8C-209,118.2-206.2,115.3-206.2,111.8z
		 M-218.7,101c0-2.1,1.5-4.1,3.7-4.3c2.6-0.3,4.8,1.7,4.8,4.2v4.7l-3.3,0l-1.3,0h-3.9c0,0,0,0,0,0L-218.7,101z M-213.6,107.3
		c0.5,0.3,0.8,0.9,0.7,1.6c-0.1,0.6-0.6,1.1-1.3,1.2l-0.3,0.1l-0.3-0.1c-0.6-0.1-1.1-0.6-1.2-1.2c-0.1-0.7,0.2-1.3,0.7-1.6l0.5,0
		L-213.6,107.3z M-213.5,113.8h-1.9l1-3.6L-213.5,113.8z"/>
	<path class="st15" d="M-171.7,96.1c-2.9-0.4-5.4,1.9-5.4,4.8l0,4.6l0,0l-4.7,0c-0.5,0-1.1,0.4-1.6,0.7l-0.1,0.1
		c-1.4,1.2-2.3,3-2.3,4.8v0.6c0,3.5,2.8,6.3,6.3,6.3h3.7c3.5,0,6.3-2.8,6.3-6.3v-0.6c0-2.3-1.2-4.6-3.3-5.5
		c-0.2-0.1-0.7-0.2-0.7-0.2l-2.9,0l0-4.4c0-2.1,1.5-4,3.6-4.3c2.5-0.3,4.7,1.6,4.7,4.1v4.6h0.7v-4.4
		C-167.5,98.6-169.3,96.5-171.7,96.1z M-176.9,107.4c0.6,0.2,0.8,0.9,0.7,1.6c-0.1,0.6-0.6,1.1-1.3,1.2l-0.3,0.1l-0.3-0.1
		c-0.6-0.1-1.1-0.6-1.2-1.2c-0.1-0.7,0.1-1.4,0.7-1.6C-178.2,107.3-177,107.4-176.9,107.4z M-176.8,113.8h-1.9l1-3.5L-176.8,113.8z
		 M-185.2,111.8v-0.6C-185.2,109.4-185.2,114.9-185.2,111.8z"/>
	
		<image style="overflow:visible;" width="1134" height="794" xlink:href="../../../../../Desktop/antotech/t-300.png"  transform="matrix(1.9458 0 0 1.9458 -956.9856 540.1721)">
	</image>
</g>
<g id="Layer_2">
	<path class="st16" d="M-35.2,401.6h-322.3c-5,0-9-4-9-9v-74.7c0-5,4-9,9-9h322.3c5,0,9,4,9,9v74.7
		C-26.2,397.6-30.2,401.6-35.2,401.6z"/>
	<text transform="matrix(1.0008 0 0.1573 0.9876 -340.6432 375.0926)" class="st8 st26 st27">AntoTech</text>
	<g id="Layer_3_1_">
		<path class="st0" d="M176.1,46.9c-14.1,0-25.6,11.5-25.6,25.6c10.8,0.2,30.2,0.5,51.2,0C201.7,58.3,190.2,46.9,176.1,46.9z
			 M175.9,67.5c-4.2,0-7.7-3.4-7.7-7.7c0-4.2,3.4-7.7,7.7-7.7c4.2,0,7.7,3.4,7.7,7.7C183.5,64.1,180.1,67.5,175.9,67.5z"/>
	</g>
	<circle class="st1" cx="228.3" cy="250.2" r="10.1"/>
	<g id="Layer_2_2_">
		<path class="st2" d="M233.9,280c-0.1-8.5-16.6-15.9-16.6-15.9v-9h-2.4v-5h-5.8v-8l2.9-2.5v-3.9l-0.6-2.1v-2.5l0.6-2.3V223
			l-2.9-3.2V215l5.8-5.3v-5.6l-5.8-3.5V195l-19.1-0.1l0.3,67.1l-3.7,3.5v21l2.6,3.2c0,0,35.8,0.5,39.4,0s5.3-4.5,5.3-4.5
			S234,288.4,233.9,280z M197.6,282.8c-2.3,0-4.1-1.8-4.1-4.1c0-2.3,1.8-4.1,4.1-4.1c2.3,0,4.1,1.8,4.1,4.1
			C201.7,280.9,199.8,282.8,197.6,282.8z"/>
		<path class="st2" d="M162.1,262.2l0.3-67.1h-19.2v5.6l-5.8,3.5v5.6l5.8,5.3v4.8l-2.9,3.2v5.8l0.6,2.3v2.5l-0.6,2.1v3.9l2.9,2.5v8
			h-5.8v5H135v9c0,0-16.4,7.5-16.6,16s0,5.3,0,5.3s1.6,4,5.3,4.5c3.7,0.5,39.4,0,39.4,0l2.6-3.2v-21L162.1,262.2z M155.1,282.8
			c-2.3,0-4.1-1.8-4.1-4.1c0-2.3,1.8-4.1,4.1-4.1s4.1,1.8,4.1,4.1C159.2,280.9,157.3,282.8,155.1,282.8z"/>
		<linearGradient id="SVGID_6_" gradientUnits="userSpaceOnUse" x1="202.7958" y1="227.5712" x2="210.2415" y2="227.5712">
			<stop  offset="0" style="stop-color:#FFFFFF"/>
			<stop  offset="0.1036" style="stop-color:#CFCFCF;stop-opacity:0.9689"/>
			<stop  offset="0.2352" style="stop-color:#999999;stop-opacity:0.9294"/>
			<stop  offset="0.3682" style="stop-color:#6A6A6A;stop-opacity:0.8896"/>
			<stop  offset="0.4998" style="stop-color:#444444;stop-opacity:0.8501"/>
			<stop  offset="0.6296" style="stop-color:#262626;stop-opacity:0.8111"/>
			<stop  offset="0.7574" style="stop-color:#111111;stop-opacity:0.7728"/>
			<stop  offset="0.882" style="stop-color:#040404;stop-opacity:0.7354"/>
			<stop  offset="1" style="stop-color:#000000;stop-opacity:0.7"/>
		</linearGradient>
		<path class="st17" d="M203.9,194.9h1.1c0.6,0,1.1,0.6,1.1,1.3v59.2c0,0.7,0.5,1.3,1.1,1.3h1.9c0.6,0,1.1,0.6,1.1,1.3v1.2
			c0,0.7-0.5,1.3-1.1,1.3h-4.7h-0.5c-0.6,0-1.1-0.6-1.1-1.3v-0.6v-62.3C202.8,195.5,203.3,194.9,203.9,194.9z"/>
		<linearGradient id="SVGID_7_" gradientUnits="userSpaceOnUse" x1="151.6723" y1="227.5332" x2="144.2271" y2="227.6155">
			<stop  offset="0" style="stop-color:#FFFFFF"/>
			<stop  offset="9.759391e-02" style="stop-color:#F9F9F9;stop-opacity:0.9707"/>
			<stop  offset="0.2217" style="stop-color:#EAEAEA;stop-opacity:0.9335"/>
			<stop  offset="0.36" style="stop-color:#D0D0D0;stop-opacity:0.892"/>
			<stop  offset="0.5087" style="stop-color:#ABABAB;stop-opacity:0.8474"/>
			<stop  offset="0.6658" style="stop-color:#7D7D7D;stop-opacity:0.8003"/>
			<stop  offset="0.83" style="stop-color:#434343;stop-opacity:0.751"/>
			<stop  offset="0.9971" style="stop-color:#010101;stop-opacity:0.7009"/>
			<stop  offset="1" style="stop-color:#000000;stop-opacity:0.7"/>
		</linearGradient>
		<path class="st18" d="M148.8,194.9h-1.1c-0.6,0-1.1,0.6-1.1,1.3v59.2c0,0.7-0.5,1.3-1.1,1.3h-1.9c-0.6,0-1.1,0.6-1.1,1.3v1.2
			c0,0.7,0.5,1.3,1.1,1.3h4.7h0.5c0.6,0,1.1-0.6,1.1-1.3v-0.6v-62.3C149.9,195.5,149.4,194.9,148.8,194.9z"/>
	</g>
	<g id="Layer_1_2_">
		<title>antobot_icon</title>
		<g id="base_1_">
			<path class="st5" d="M218.7,204.7h-85.4c-8.9,0-16.2-7.3-16.2-16.2V84.4c0-8.9,7.3-16.2,16.2-16.2h85.4c8.9,0,16.2,7.3,16.2,16.2
				v104.1C234.9,197.4,227.6,204.7,218.7,204.7z"/>
			<path class="st1" d="M149,87.9h17.2c2.2,0,4,1.8,4,4v19.2c0,2.2-1.8,4-4,4H149c-2.2,0-4-1.8-4-4V91.8
				C145.1,89.7,146.8,87.9,149,87.9z"/>
			<path class="st1" d="M186.5,87.9h17.2c2.2,0,4,1.8,4,4v19.2c0,2.2-1.8,4-4,4h-17.2c-2.2,0-4-1.8-4-4V91.8
				C182.6,89.7,184.4,87.9,186.5,87.9z"/>
		</g>
		<g id="Layer_4_2_">
			<path class="st6" d="M247.5,42.2C216.8,5.6,168,10.5,155.9,12.4c-1.6,0.2-3-0.8-3.4-2.3l0,0c-0.4-1.6,0.7-3.2,2.3-3.6
				c0.1,0,0.1,0,0.2,0c11.2-1.7,22.6-2,33.8-0.7c26.2,3,48,14.2,63.3,32.5c1.1,1.3,0.9,3.2-0.3,4.2l-0.1,0.1l0,0
				C250.4,43.6,248.6,43.4,247.5,42.2z"/>
			<path class="st6" d="M231.5,46.2c-22.3-26.6-57.8-23.1-66.5-21.7c-1.1,0.2-2.2-0.6-2.5-1.7l0,0c-0.3-1.2,0.5-2.3,1.7-2.6h0.1
				c8.1-1.2,16.4-1.4,24.6-0.5c19,2.2,34.9,10.4,46,23.6c0.8,0.9,0.7,2.3-0.3,3.1c0,0,0,0-0.1,0l0,0
				C233.6,47.2,232.2,47.1,231.5,46.2z"/>
			<path class="st6" d="M210.3,49.1c-10.2-12.3-26.6-10.6-30.6-10c-0.5,0.1-1-0.3-1.1-0.8l0,0c-0.1-0.5,0.2-1.1,0.8-1.2
				c0,0,0,0,0.1,0c3.7-0.6,7.5-0.6,11.3-0.2c8.7,1,16,4.8,21.1,10.9c0.4,0.4,0.3,1.1-0.1,1.4l0,0l0,0
				C211.3,49.5,210.7,49.5,210.3,49.1z"/>
		</g>
		<circle class="st6" cx="175.7" cy="128.6" r="6.9"/>
		<text transform="matrix(1 0 0 1 222.4324 255.9147)" class="st7 st19 st20">R</text>
	</g>
	<path class="st8" d="M270,147.4c-0.6-5.6-2.6-10.4-4.7-13.2c0.5-1.3,0.3-2.8-0.7-4l-1.8-2.3c1.4-2.8,2.1-5.8,2.1-9
		c0-11-8.8-20-19.6-20c-3.3,0-6.6,0.9-9.4,2.5c-0.4,0.2-1-0.1-1-0.6v35.1c3.1,2,6.7,3,10.4,3c0.3,0,0.6,0,0.9,0l2.7,3.5
		c0.7,0.9,1.7,1.5,2.8,1.6c0.6,0.1,1.1,0,1.6-0.1c2.1,2.5,2.8,4.9,1.9,10.7c-0.7,5-7.1,12.3-9.5,14.7l-0.3,0.3
		c-0.3,0.3-0.5,0.7-0.5,1.1v8.1c0,0.6,0.5,1.1,1.1,1.1h8.1c0.3,0,0.6-0.1,0.8-0.3l0.4-0.3C269,167.7,270.9,155.5,270,147.4z
		 M250.8,114.2l-9.2,6.1c-0.6,0.4-1.5,0.2-1.9-0.4c-0.4-0.6-0.2-1.5,0.4-1.9l2.2-1.4c-0.9-0.8-1.3-2-0.9-3.2
		c0.5-1.7,2.2-2.6,3.9-2.1c1,0.3,1.8,1.1,2.1,2l2-1.3c0.6-0.4,1.5-0.2,1.9,0.4S251.5,113.8,250.8,114.2z"/>
	<g>
		<path class="st9" d="M250.3,172c0.3,0.3,0.8,0.3,1.1,0c5.5-5.4,11.8-13.6,11.3-23.3c-0.2-4.5-1.9-7.7-2.7-9.1
			c-0.2-0.4-0.8-0.5-1.2-0.2l-0.6,0.5l0.6-0.5l0,0c-0.3,0.2-0.4,0.7-0.2,1c0.7,1.2,2.3,4.2,2.5,8.4c0.3,7.2-3.4,14.7-10.8,21.9
			C250,171.2,250,171.7,250.3,172L250.3,172z"/>
	</g>
	<path class="st8" d="M96.9,179.2l0.4,0.3c0.2,0.2,0.5,0.3,0.8,0.3h8.1c0.6,0,1.1-0.5,1.1-1.1v-8.1c0-0.4-0.2-0.8-0.5-1.1l-0.3-0.3
		c-2.4-2.4-8.8-9.6-9.5-14.7c-0.8-5.8-0.1-8.2,1.9-10.7c0.5,0.1,1.1,0.2,1.6,0.1c1.1-0.1,2.1-0.7,2.8-1.6l2.7-3.5c0.3,0,0.6,0,0.9,0
		c3.7,0,7.3-1.1,10.4-3v-35.1c0,0.5-0.5,0.8-1,0.6c-2.8-1.6-6.1-2.5-9.4-2.5c-10.8,0-19.6,9-19.6,20c0,3.1,0.7,6.2,2.1,9l-1.8,2.3
		c-0.9,1.2-1.1,2.7-0.7,4c-2.1,2.8-4.1,7.7-4.7,13.2C81.5,155.5,83.4,167.7,96.9,179.2z M101.2,112.3c0.4-0.6,1.3-0.8,1.9-0.4l2,1.3
		c0.3-0.9,1.1-1.7,2.1-2c1.7-0.5,3.4,0.4,3.9,2.1c0.4,1.2,0,2.5-0.9,3.2l2.2,1.4c0.6,0.4,0.8,1.3,0.4,1.9c-0.4,0.6-1.3,0.8-1.9,0.4
		l-9.2-6.1C100.9,113.8,100.8,112.9,101.2,112.3z"/>
	<g>
		<path class="st9" d="M102.1,172c-0.3,0.3-0.8,0.3-1.1,0c-5.5-5.4-11.8-13.6-11.3-23.3c0.2-4.5,1.9-7.7,2.7-9.1
			c0.2-0.4,0.8-0.5,1.2-0.2l0.6,0.5l-0.6-0.5l0,0c0.3,0.2,0.4,0.7,0.2,1c-0.7,1.2-2.3,4.2-2.5,8.4c-0.3,7.2,3.4,14.7,10.8,21.9
			C102.4,171.2,102.4,171.7,102.1,172L102.1,172z"/>
	</g>
	<g class="st10">
		<linearGradient id="SVGID_8_" gradientUnits="userSpaceOnUse" x1="175.8928" y1="153.6684" x2="175.9474" y2="139.3046">
			<stop  offset="0" style="stop-color:#FFFFFF"/>
			<stop  offset="2.861995e-02" style="stop-color:#E8E8E8"/>
			<stop  offset="9.635282e-02" style="stop-color:#B8B8B8"/>
			<stop  offset="0.1697" style="stop-color:#8C8C8C"/>
			<stop  offset="0.2469" style="stop-color:#666666"/>
			<stop  offset="0.3291" style="stop-color:#474747"/>
			<stop  offset="0.4178" style="stop-color:#2D2D2D"/>
			<stop  offset="0.5155" style="stop-color:#191919"/>
			<stop  offset="0.6268" style="stop-color:#0B0B0B"/>
			<stop  offset="0.7635" style="stop-color:#020202"/>
			<stop  offset="1" style="stop-color:#000000"/>
		</linearGradient>
		<path class="st21" d="M135.6,154.2h40.3h40.3c0.6,0,1-0.8,1-1.7c0-0.9-0.5-1.7-1-1.7h-40.3h-40.3c-0.6,0-1,0.8-1,1.7
			C134.6,153.5,135.1,154.2,135.6,154.2z"/>
		<linearGradient id="SVGID_9_" gradientUnits="userSpaceOnUse" x1="175.6928" y1="179.2957" x2="175.7474" y2="164.9319">
			<stop  offset="0" style="stop-color:#FFFFFF"/>
			<stop  offset="2.861995e-02" style="stop-color:#E8E8E8"/>
			<stop  offset="9.635282e-02" style="stop-color:#B8B8B8"/>
			<stop  offset="0.1697" style="stop-color:#8C8C8C"/>
			<stop  offset="0.2469" style="stop-color:#666666"/>
			<stop  offset="0.3291" style="stop-color:#474747"/>
			<stop  offset="0.4178" style="stop-color:#2D2D2D"/>
			<stop  offset="0.5155" style="stop-color:#191919"/>
			<stop  offset="0.6268" style="stop-color:#0B0B0B"/>
			<stop  offset="0.7635" style="stop-color:#020202"/>
			<stop  offset="1" style="stop-color:#000000"/>
		</linearGradient>
		<path class="st22" d="M135.4,179.9h40.3H216c0.6,0,1-0.8,1-1.7s-0.5-1.7-1-1.7h-40.3h-40.3c-0.6,0-1,0.8-1,1.7
			S134.9,179.9,135.4,179.9z"/>
		<linearGradient id="SVGID_10_" gradientUnits="userSpaceOnUse" x1="175.8928" y1="166.482" x2="175.9474" y2="152.1182">
			<stop  offset="0" style="stop-color:#FFFFFF"/>
			<stop  offset="2.861995e-02" style="stop-color:#E8E8E8"/>
			<stop  offset="9.635282e-02" style="stop-color:#B8B8B8"/>
			<stop  offset="0.1697" style="stop-color:#8C8C8C"/>
			<stop  offset="0.2469" style="stop-color:#666666"/>
			<stop  offset="0.3291" style="stop-color:#474747"/>
			<stop  offset="0.4178" style="stop-color:#2D2D2D"/>
			<stop  offset="0.5155" style="stop-color:#191919"/>
			<stop  offset="0.6268" style="stop-color:#0B0B0B"/>
			<stop  offset="0.7635" style="stop-color:#020202"/>
			<stop  offset="1" style="stop-color:#000000"/>
		</linearGradient>
		<path class="st23" d="M135.6,167.1h40.3h40.3c0.6,0,1-0.8,1-1.7c0-0.9-0.5-1.7-1-1.7h-40.3h-40.3c-0.6,0-1,0.8-1,1.7
			C134.6,166.3,135.1,167.1,135.6,167.1z"/>
	</g>
	<path class="st14" d="M165.8,106.2v-0.6c0-2.3-1.3-4.5-3.4-5.6v-4.5c0-2.5-1.8-4.7-4.2-5H157c-2.4,0.3-4.3,2.3-4.3,4.8l0,4.8l0,0
		c-0.3,0.1-0.6,0.2-0.9,0.4l-0.1,0.1c-1.5,1.2-2.4,3-2.4,4.9v0.6c0,3.5,2.8,6.4,6.4,6.4h3.8C163,112.5,165.8,109.7,165.8,106.2z
		 M153.4,95.4c0-2.1,1.5-4.1,3.7-4.3c2.6-0.3,4.8,1.7,4.8,4.2v4.7l-3.3,0l-1.3,0h-3.9c0,0,0,0,0,0L153.4,95.4z M158.4,101.7
		c0.5,0.3,0.8,0.9,0.7,1.6c-0.1,0.6-0.6,1.1-1.3,1.2l-0.3,0.1l-0.3-0.1c-0.6-0.1-1.1-0.6-1.2-1.2c-0.1-0.7,0.2-1.3,0.7-1.6l0.5,0
		L158.4,101.7z M158.5,108.2h-1.9l1-3.6L158.5,108.2z"/>
	<path class="st15" d="M200.3,90.5c-2.9-0.4-5.4,1.9-5.4,4.8l0,4.6l0,0l-4.7,0c-0.5,0-1.1,0.4-1.6,0.7l-0.1,0.1
		c-1.4,1.2-2.3,3-2.3,4.8v0.6c0,3.5,2.8,6.3,6.3,6.3h3.7c3.5,0,6.3-2.8,6.3-6.3v-0.6c0-2.3-1.2-4.6-3.3-5.5
		c-0.2-0.1-0.7-0.2-0.7-0.2l-2.9,0l0-4.4c0-2.1,1.5-4,3.6-4.3c2.5-0.3,4.7,1.6,4.7,4.1v4.6h0.7v-4.4C204.5,93,202.7,90.8,200.3,90.5
		z M195.1,101.8c0.6,0.2,0.8,0.9,0.7,1.6c-0.1,0.6-0.6,1.1-1.3,1.2l-0.3,0.1l-0.3-0.1c-0.6-0.1-1.1-0.6-1.2-1.2
		c-0.1-0.7,0.1-1.4,0.7-1.6C193.8,101.7,195,101.8,195.1,101.8z M195.2,108.2h-1.9l1-3.5L195.2,108.2z M186.8,106.2v-0.6
		C186.8,103.8,186.8,109.3,186.8,106.2z"/>
	<path class="st24" d="M336.8,396H14.5c-5,0-9-4-9-9v-74.7c0-5,4-9,9-9h322.3c5,0,9,4,9,9V387C345.8,392,341.8,396,336.8,396z"/>
	<text transform="matrix(1.0008 0 0.1573 0.9876 31.3713 369.4826)" class="st25 st26 st27">AntoTech</text>
</g>
</svg>
