<?xml version="1.0" encoding="utf-8"?>
<!-- Generator: Adobe Illustrator 23.0.1, SVG Export Plug-In . SVG Version: 6.00 Build 0)  -->
<svg version="1.1" xmlns="http://www.w3.org/2000/svg" xmlns:xlink="http://www.w3.org/1999/xlink" x="0px" y="0px"
	 viewBox="0 0 150 150" style="enable-background:new 0 0 150 150;" xml:space="preserve">
<style type="text/css">
	.st0{fill:#707070;}
	.st1{fill:none;stroke:#FFFFFF;stroke-miterlimit:10;}
	.st2{fill:#AEB0AF;}
	.st3{fill:url(#SVGID_1_);}
	.st4{fill:url(#SVGID_2_);}
	.st5{fill:#000206;}
	.st6{fill:#F03335;}
	.st7{fill:#FEBE10;}
	.st8{fill:#A67C52;}
	.st9{opacity:0.89;}
	.st10{fill:url(#SVGID_3_);}
	.st11{fill:url(#SVGID_4_);}
	.st12{fill:url(#SVGID_5_);}
	.st13{fill:#F0493E;}
	.st14{fill:#1F8DC5;}
	.st15{fill:#014080;}
	.st16{fill:url(#SVGID_6_);}
	.st17{fill:url(#SVGID_7_);}
	.st18{fill:url(#SVGID_8_);}
	.st19{fill:url(#SVGID_9_);}
	.st20{fill:url(#SVGID_10_);}
	.st21{fill:none;stroke:#FFFFFF;stroke-width:2;stroke-miterlimit:10;}
	.st22{fill:url(#SVGID_11_);}
	.st23{fill:url(#SVGID_12_);}
	.st24{fill:#FFFFFF;}
	.st25{font-family:'ArialMT';}
	.st26{font-size:6.3417px;}
	.st27{fill:url(#SVGID_13_);}
	.st28{fill:url(#SVGID_14_);}
	.st29{fill:url(#SVGID_15_);}
	.st30{font-family:'TimesNewRomanPS-BoldItalicMT';}
	.st31{font-size:28.0269px;}
	.st32{fill:#FFFEF9;}
	.st33{font-size:5.5026px;}
</style>
<g id="Layer_1">
	<g>
		<g id="Layer_4_1_">
		</g>
		<g id="Layer_3">
			<path class="st0" d="M437.1-83.1c-14.1,0-25.6,11.5-25.6,25.6c10.8,0.2,30.2,0.5,51.2,0C462.7-71.7,451.2-83.1,437.1-83.1z
				 M436.9-62.5c-4.2,0-7.7-3.4-7.7-7.7c0-4.2,3.4-7.7,7.7-7.7c4.2,0,7.7,3.4,7.7,7.7C444.5-65.9,441.1-62.5,436.9-62.5z"/>
		</g>
		<circle class="st1" cx="489.3" cy="120.2" r="10.1"/>
		<g id="Layer_2_1_">
			<path class="st2" d="M494.9,150c-0.1-8.5-16.6-15.9-16.6-15.9v-9h-2.4v-5h-5.8v-8l2.9-2.5v-3.9l-0.6-2.1v-2.5l0.6-2.3V93
				l-2.9-3.2V85l5.8-5.3v-5.6l-5.8-3.5V65L451,64.8l0.3,67.1l-3.7,3.5v21l2.6,3.2c0,0,35.8,0.5,39.4,0s5.3-4.5,5.3-4.5
				S495,158.4,494.9,150z M458.6,152.8c-2.3,0-4.1-1.8-4.1-4.1c0-2.3,1.8-4.1,4.1-4.1s4.1,1.8,4.1,4.1
				C462.7,150.9,460.8,152.8,458.6,152.8z"/>
			<path class="st2" d="M423.1,132.1l0.3-67.1h-19.2v5.6l-5.8,3.5v5.6l5.8,5.3v4.8l-2.9,3.2v5.8l0.6,2.3v2.5l-0.6,2.1v3.9l2.9,2.5v8
				h-5.8v5H396v9c0,0-16.4,7.5-16.6,16c-0.2,8.5,0,5.3,0,5.3s1.6,4,5.3,4.5s39.4,0,39.4,0l2.6-3.2v-21L423.1,132.1z M416.1,152.8
				c-2.3,0-4.1-1.8-4.1-4.1c0-2.3,1.8-4.1,4.1-4.1s4.1,1.8,4.1,4.1C420.2,150.9,418.3,152.8,416.1,152.8z"/>
			
				<linearGradient id="SVGID_1_" gradientUnits="userSpaceOnUse" x1="463.7812" y1="-104.3623" x2="471.2269" y2="-104.3623" gradientTransform="matrix(1 0 0 1 0 202.0123)">
				<stop  offset="0" style="stop-color:#FFFFFF"/>
				<stop  offset="0.1036" style="stop-color:#CFCFCF;stop-opacity:0.9689"/>
				<stop  offset="0.2352" style="stop-color:#999999;stop-opacity:0.9294"/>
				<stop  offset="0.3682" style="stop-color:#6A6A6A;stop-opacity:0.8896"/>
				<stop  offset="0.4998" style="stop-color:#444444;stop-opacity:0.8501"/>
				<stop  offset="0.6296" style="stop-color:#262626;stop-opacity:0.8111"/>
				<stop  offset="0.7574" style="stop-color:#111111;stop-opacity:0.7728"/>
				<stop  offset="0.882" style="stop-color:#040404;stop-opacity:0.7354"/>
				<stop  offset="1" style="stop-color:#000000;stop-opacity:0.7"/>
			</linearGradient>
			<path class="st3" d="M464.9,64.9h1.1c0.6,0,1.1,0.6,1.1,1.3v59.2c0,0.7,0.5,1.3,1.1,1.3h1.9c0.6,0,1.1,0.6,1.1,1.3v1.2
				c0,0.7-0.5,1.3-1.1,1.3h-4.7h-0.5c-0.6,0-1.1-0.6-1.1-1.3v-0.8V66.1C463.8,65.5,464.3,64.9,464.9,64.9z"/>
			
				<linearGradient id="SVGID_2_" gradientUnits="userSpaceOnUse" x1="412.659" y1="-104.4" x2="405.2138" y2="-104.3176" gradientTransform="matrix(1 0 0 1 0 202.0123)">
				<stop  offset="0" style="stop-color:#FFFFFF"/>
				<stop  offset="9.759391e-02" style="stop-color:#F9F9F9;stop-opacity:0.9707"/>
				<stop  offset="0.2217" style="stop-color:#EAEAEA;stop-opacity:0.9335"/>
				<stop  offset="0.36" style="stop-color:#D0D0D0;stop-opacity:0.892"/>
				<stop  offset="0.5087" style="stop-color:#ABABAB;stop-opacity:0.8474"/>
				<stop  offset="0.6658" style="stop-color:#7D7D7D;stop-opacity:0.8003"/>
				<stop  offset="0.83" style="stop-color:#434343;stop-opacity:0.751"/>
				<stop  offset="0.9971" style="stop-color:#010101;stop-opacity:0.7009"/>
				<stop  offset="1" style="stop-color:#000000;stop-opacity:0.7"/>
			</linearGradient>
			<path class="st4" d="M409.8,64.9h-1.1c-0.6,0-1.1,0.6-1.1,1.3v59.2c0,0.7-0.5,1.3-1.1,1.3h-1.9c-0.6,0-1.1,0.6-1.1,1.3v1.2
				c0,0.7,0.5,1.3,1.1,1.3h4.7h0.5c0.6,0,1.1-0.6,1.1-1.3v-0.8V66.1C410.9,65.5,410.4,64.9,409.8,64.9z"/>
		</g>
		<g id="Layer_1_1_">
			<title>antobot_icon</title>
			<g id="base">
				<path class="st5" d="M479.6,74.7h-85.4c-8.9,0-16.2-7.3-16.2-16.2V-45.6c0-8.9,7.3-16.2,16.2-16.2h85.4
					c8.9,0,16.2,7.3,16.2,16.2V58.5C495.8,67.5,488.6,74.7,479.6,74.7z"/>
				<path class="st1" d="M410-42.1h17.2c2.2,0,4,1.8,4,4v19.2c0,2.2-1.8,4-4,4H410c-2.2,0-4-1.8-4-4v-19.3
					C406.1-40.3,407.8-42.1,410-42.1z"/>
				<path class="st1" d="M447.5-42.1h17.2c2.2,0,4,1.8,4,4v19.2c0,2.2-1.8,4-4,4h-17.2c-2.2,0-4-1.8-4-4v-19.3
					C443.6-40.3,445.4-42.1,447.5-42.1z"/>
			</g>
			<g id="Layer_4">
				<path class="st6" d="M508.5-87.8c-30.7-36.6-79.5-31.7-91.6-29.8c-1.6,0.2-3-0.8-3.4-2.3l0,0c-0.4-1.6,0.7-3.2,2.3-3.6
					c0.1,0,0.1,0,0.2,0c11.2-1.7,22.6-2,33.8-0.7c26.2,3,48,14.2,63.3,32.5c1.1,1.3,0.9,3.2-0.3,4.2l-0.1,0.1l0,0
					C511.4-86.4,509.6-86.6,508.5-87.8z"/>
				<path class="st6" d="M492.5-83.8c-22.3-26.6-57.8-23.1-66.5-21.7c-1.1,0.2-2.2-0.6-2.5-1.7l0,0c-0.3-1.2,0.5-2.3,1.7-2.6h0.1
					c8.1-1.2,16.4-1.4,24.6-0.5c19,2.2,34.9,10.4,46,23.6c0.8,0.9,0.7,2.3-0.3,3.1c0,0,0,0-0.1,0l0,0
					C494.6-82.8,493.2-82.9,492.5-83.8z"/>
				<path class="st6" d="M471.3-80.9c-10.2-12.3-26.6-10.6-30.6-10c-0.5,0.1-1-0.3-1.1-0.8l0,0c-0.1-0.5,0.2-1.1,0.8-1.2
					c0,0,0,0,0.1,0c3.7-0.6,7.5-0.6,11.3-0.2c8.7,1,16,4.8,21.1,10.9c0.4,0.4,0.3,1.1-0.1,1.4l0,0l0,0
					C472.3-80.5,471.7-80.5,471.3-80.9z"/>
			</g>
			<circle class="st6" cx="436.7" cy="-1.4" r="6.9"/>
			<text transform="matrix(1 0 0 1 483.4179 125.8808)" class="st24 st25" style="font-size:16.93px;">R</text>
			<text transform="matrix(1 0 0 1 483.4179 125.8808)" class="st1 st25" style="font-size:16.93px;">R</text>
		</g>
		<path class="st7" d="M531,17.4c-0.6-5.6-2.6-10.4-4.7-13.2c0.5-1.3,0.3-2.8-0.7-4l-1.8-2.3c1.4-2.8,2.1-5.8,2.1-9
			c0-11-8.8-20-19.6-20c-3.3,0-6.6,0.9-9.4,2.5c-0.4,0.2-1-0.1-1-0.6V5.9c3.1,2,6.7,3,10.4,3c0.3,0,0.6,0,0.9,0l2.7,3.5
			c0.7,0.9,1.7,1.5,2.8,1.6c0.6,0.1,1.1,0,1.6-0.1c2.1,2.5,2.8,4.9,1.9,10.7c-0.7,5-7.1,12.3-9.5,14.7l-0.3,0.3
			c-0.3,0.3-0.5,0.7-0.5,1.1v8.1c0,0.6,0.5,1.1,1.1,1.1h8.1c0.3,0,0.6-0.1,0.8-0.3l0.4-0.3C530,37.7,531.8,25.5,531,17.4z
			 M511.8-15.8l-9.2,6.1c-0.6,0.4-1.5,0.2-1.9-0.4s-0.2-1.5,0.4-1.9l2.2-1.4c-0.9-0.8-1.3-2-0.9-3.2c0.5-1.7,2.2-2.6,3.9-2.1
			c1,0.3,1.8,1.1,2.1,2l2-1.3c0.6-0.4,1.5-0.2,1.9,0.4C512.6-17.1,512.4-16.2,511.8-15.8z"/>
		<g>
			<path class="st8" d="M511.2,42c0.3,0.3,0.8,0.3,1.1,0c5.5-5.4,11.8-13.6,11.3-23.3c-0.2-4.5-1.9-7.7-2.7-9.1
				c-0.2-0.4-0.8-0.5-1.2-0.2l-0.6,0.5l0.6-0.5l0,0c-0.3,0.2-0.4,0.7-0.2,1c0.7,1.2,2.3,4.2,2.5,8.4c0.3,7.2-3.4,14.7-10.8,21.9
				C511,41.2,510.9,41.7,511.2,42L511.2,42z"/>
		</g>
		<path class="st7" d="M357.9,49.3l0.4,0.3c0.2,0.2,0.5,0.3,0.8,0.3h8.1c0.6,0,1.1-0.5,1.1-1.1v-8.1c0-0.4-0.2-0.8-0.5-1.1l-0.3-0.3
			c-2.4-2.4-8.8-9.6-9.5-14.7c-0.8-5.8-0.1-8.2,1.9-10.7c0.5,0.1,1.1,0.2,1.6,0.1c1.1-0.1,2.1-0.7,2.8-1.6l2.7-3.5
			c0.3,0,0.6,0,0.9,0c3.7,0,7.3-1.1,10.4-3v-35.1c0,0.5-0.5,0.8-1,0.6c-2.8-1.6-6.1-2.5-9.4-2.5c-10.8,0-19.6,9-19.6,20
			c0,3.1,0.7,6.2,2.1,9l-1.8,2.3c-0.9,1.2-1.1,2.7-0.7,4c-2.1,2.8-4.1,7.7-4.7,13.2C342.5,25.5,344.4,37.7,357.9,49.3z M362.2-17.7
			c0.4-0.6,1.3-0.8,1.9-0.4l2,1.3c0.3-0.9,1.1-1.7,2.1-2c1.7-0.5,3.4,0.4,3.9,2.1c0.4,1.2,0,2.5-0.9,3.2l2.2,1.4
			c0.6,0.4,0.8,1.3,0.4,1.9c-0.4,0.6-1.3,0.8-1.9,0.4l-9.2-6.1C361.9-16.2,361.7-17.1,362.2-17.7z"/>
		<g>
			<path class="st8" d="M363.1,42c-0.3,0.3-0.8,0.3-1.1,0c-5.5-5.4-11.8-13.6-11.3-23.3c0.2-4.5,1.9-7.7,2.7-9.1
				c0.2-0.4,0.8-0.5,1.2-0.2l0.6,0.5l-0.6-0.5l0,0c0.3,0.2,0.4,0.7,0.2,1c-0.7,1.2-2.3,4.2-2.5,8.4c-0.3,7.2,3.4,14.7,10.8,21.9
				C363.4,41.2,363.4,41.7,363.1,42L363.1,42z"/>
		</g>
		<g class="st9">
			
				<linearGradient id="SVGID_3_" gradientUnits="userSpaceOnUse" x1="436.8959" y1="-178.3777" x2="436.9506" y2="-192.7415" gradientTransform="matrix(1 0 0 1 0 202.0123)">
				<stop  offset="0" style="stop-color:#FFFFFF"/>
				<stop  offset="2.861995e-02" style="stop-color:#E8E8E8"/>
				<stop  offset="9.635282e-02" style="stop-color:#B8B8B8"/>
				<stop  offset="0.1697" style="stop-color:#8C8C8C"/>
				<stop  offset="0.2469" style="stop-color:#666666"/>
				<stop  offset="0.3291" style="stop-color:#474747"/>
				<stop  offset="0.4178" style="stop-color:#2D2D2D"/>
				<stop  offset="0.5155" style="stop-color:#191919"/>
				<stop  offset="0.6268" style="stop-color:#0B0B0B"/>
				<stop  offset="0.7635" style="stop-color:#020202"/>
				<stop  offset="1" style="stop-color:#000000"/>
			</linearGradient>
			<path class="st10" d="M396.6,24.3h40.3h40.3c0.6,0,1-0.8,1-1.7s-0.5-1.7-1-1.7h-40.3h-40.3c-0.6,0-1,0.8-1,1.7
				C395.6,23.5,396.1,24.3,396.6,24.3z"/>
			
				<linearGradient id="SVGID_4_" gradientUnits="userSpaceOnUse" x1="436.6958" y1="-152.7505" x2="436.7505" y2="-167.1142" gradientTransform="matrix(1 0 0 1 0 202.0123)">
				<stop  offset="0" style="stop-color:#FFFFFF"/>
				<stop  offset="2.861995e-02" style="stop-color:#E8E8E8"/>
				<stop  offset="9.635282e-02" style="stop-color:#B8B8B8"/>
				<stop  offset="0.1697" style="stop-color:#8C8C8C"/>
				<stop  offset="0.2469" style="stop-color:#666666"/>
				<stop  offset="0.3291" style="stop-color:#474747"/>
				<stop  offset="0.4178" style="stop-color:#2D2D2D"/>
				<stop  offset="0.5155" style="stop-color:#191919"/>
				<stop  offset="0.6268" style="stop-color:#0B0B0B"/>
				<stop  offset="0.7635" style="stop-color:#020202"/>
				<stop  offset="1" style="stop-color:#000000"/>
			</linearGradient>
			<path class="st11" d="M396.4,49.9h40.3H477c0.6,0,1-0.8,1-1.7s-0.5-1.7-1-1.7h-40.3h-40.3c-0.6,0-1,0.8-1,1.7
				S395.9,49.9,396.4,49.9z"/>
			
				<linearGradient id="SVGID_5_" gradientUnits="userSpaceOnUse" x1="436.8958" y1="-165.5641" x2="436.9505" y2="-179.9279" gradientTransform="matrix(1 0 0 1 0 202.0123)">
				<stop  offset="0" style="stop-color:#FFFFFF"/>
				<stop  offset="2.861995e-02" style="stop-color:#E8E8E8"/>
				<stop  offset="9.635282e-02" style="stop-color:#B8B8B8"/>
				<stop  offset="0.1697" style="stop-color:#8C8C8C"/>
				<stop  offset="0.2469" style="stop-color:#666666"/>
				<stop  offset="0.3291" style="stop-color:#474747"/>
				<stop  offset="0.4178" style="stop-color:#2D2D2D"/>
				<stop  offset="0.5155" style="stop-color:#191919"/>
				<stop  offset="0.6268" style="stop-color:#0B0B0B"/>
				<stop  offset="0.7635" style="stop-color:#020202"/>
				<stop  offset="1" style="stop-color:#000000"/>
			</linearGradient>
			<path class="st12" d="M396.6,37.1h40.3h40.3c0.6,0,1-0.8,1-1.7s-0.5-1.7-1-1.7h-40.3h-40.3c-0.6,0-1,0.8-1,1.7
				S396.1,37.1,396.6,37.1z"/>
		</g>
		<path class="st13" d="M426.8-23.8v-0.6c0-2.3-1.3-4.5-3.4-5.6v-4.6c0-2.5-1.8-4.7-4.2-5H418c-2.4,0.3-4.3,2.3-4.3,4.8v4.8l0,0
			c-0.3,0.1-0.6,0.2-0.9,0.4l-0.1,0.1c-1.5,1.2-2.4,3-2.4,4.9v0.6c0,3.5,2.8,6.4,6.4,6.4h3.8C424-17.4,426.8-20.3,426.8-23.8z
			 M414.3-34.6c0-2.1,1.5-4.1,3.7-4.3c2.6-0.3,4.8,1.7,4.8,4.2v4.7h-3.3h-1.3h-3.9l0,0V-34.6z M419.4-28.3c0.5,0.3,0.8,0.9,0.7,1.6
			c-0.1,0.6-0.6,1.1-1.3,1.2l-0.3,0.1l-0.3-0.1c-0.6-0.1-1.1-0.6-1.2-1.2c-0.1-0.7,0.2-1.3,0.7-1.6h0.5H419.4z M419.5-21.8h-1.9
			l1-3.6L419.5-21.8z"/>
		<path class="st14" d="M461.3-39.5c-2.9-0.4-5.4,1.9-5.4,4.8v4.6l0,0h-4.7c-0.5,0-1.1,0.4-1.6,0.7l-0.1,0.1c-1.4,1.2-2.3,3-2.3,4.8
			v0.6c0,3.5,2.8,6.3,6.3,6.3h3.7c3.5,0,6.3-2.8,6.3-6.3v-0.6c0-2.3-1.2-4.6-3.3-5.5c-0.2-0.1-0.7-0.2-0.7-0.2h-2.9v-4.4
			c0-2.1,1.5-4,3.6-4.3c2.5-0.3,4.7,1.6,4.7,4.1v4.6h0.7v-4.4C465.5-37,463.7-39.1,461.3-39.5z M456.1-28.2c0.6,0.2,0.8,0.9,0.7,1.6
			c-0.1,0.6-0.6,1.1-1.3,1.2l-0.3,0.1l-0.3-0.1c-0.6-0.1-1.1-0.6-1.2-1.2c-0.1-0.7,0.1-1.4,0.7-1.6C454.8-28.3,456-28.2,456.1-28.2z
			 M456.2-21.8h-1.9l1-3.5L456.2-21.8z M447.8-23.8v-0.6C447.8-26.2,447.8-20.7,447.8-23.8z"/>
		<path class="st15" d="M597.8,266H275.5c-5,0-9-4-9-9v-74.7c0-5,4-9,9-9h322.3c5,0,9,4,9,9V257C606.8,262,602.8,266,597.8,266z"/>
		<text transform="matrix(1.0008 0 0.1573 0.9876 292.3568 231.3785)" class="st7 st30" style="font-size:74.8212px;">AntoTech</text>
	</g>
	<g>
		<g id="Layer_3_1_">
			<path class="st0" d="M809.1-88.7c-14.1,0-25.6,11.5-25.6,25.6c10.8,0.2,30.2,0.5,51.2,0C834.7-77.3,823.2-88.7,809.1-88.7z
				 M808.9-68.1c-4.2,0-7.7-3.4-7.7-7.7c0-4.2,3.4-7.7,7.7-7.7c4.2,0,7.7,3.4,7.7,7.7C816.5-71.5,813.1-68.1,808.9-68.1z"/>
		</g>
		<circle class="st1" cx="861.3" cy="114.6" r="10.1"/>
		<g id="Layer_2_2_">
			<path class="st2" d="M866.9,144.4c-0.1-8.5-16.6-15.9-16.6-15.9v-9h-2.4v-5h-5.8v-8l2.9-2.5v-3.9l-0.6-2.1v-2.5l0.6-2.3v-5.8
				l-2.9-3.2v-4.8l5.8-5.3v-5.6l-5.8-3.5v-5.6L823,59.3l0.3,67.1l-3.7,3.5v21l2.6,3.2c0,0,35.8,0.5,39.4,0c3.6-0.5,5.3-4.5,5.3-4.5
				S867,152.8,866.9,144.4z M830.6,147.1c-2.3,0-4.1-1.8-4.1-4.1c0-2.3,1.8-4.1,4.1-4.1s4.1,1.8,4.1,4.1
				C834.7,145.2,832.8,147.1,830.6,147.1z"/>
			<path class="st2" d="M795.1,126.6l0.3-67.1h-19.2v5.6l-5.8,3.5v5.6l5.8,5.3v4.8l-2.9,3.2v5.8l0.6,2.3v2.5l-0.6,2.1v3.9l2.9,2.5v8
				h-5.8v5H768v9c0,0-16.4,7.5-16.6,16c-0.2,8.5,0,5.3,0,5.3s1.6,4,5.3,4.5c3.7,0.5,39.4,0,39.4,0l2.6-3.2v-21L795.1,126.6z
				 M788.1,147.1c-2.3,0-4.1-1.8-4.1-4.1c0-2.3,1.8-4.1,4.1-4.1s4.1,1.8,4.1,4.1C792.2,145.2,790.3,147.1,788.1,147.1z"/>
			
				<linearGradient id="SVGID_6_" gradientUnits="userSpaceOnUse" x1="835.8" y1="-109.9623" x2="843.2457" y2="-109.9623" gradientTransform="matrix(1 0 0 1 0 202.0123)">
				<stop  offset="0" style="stop-color:#FFFFFF"/>
				<stop  offset="0.1036" style="stop-color:#CFCFCF;stop-opacity:0.9689"/>
				<stop  offset="0.2352" style="stop-color:#999999;stop-opacity:0.9294"/>
				<stop  offset="0.3682" style="stop-color:#6A6A6A;stop-opacity:0.8896"/>
				<stop  offset="0.4998" style="stop-color:#444444;stop-opacity:0.8501"/>
				<stop  offset="0.6296" style="stop-color:#262626;stop-opacity:0.8111"/>
				<stop  offset="0.7574" style="stop-color:#111111;stop-opacity:0.7728"/>
				<stop  offset="0.882" style="stop-color:#040404;stop-opacity:0.7354"/>
				<stop  offset="1" style="stop-color:#000000;stop-opacity:0.7"/>
			</linearGradient>
			<path class="st16" d="M836.9,59.3h1.1c0.6,0,1.1,0.6,1.1,1.3v59.2c0,0.7,0.5,1.3,1.1,1.3h1.9c0.6,0,1.1,0.6,1.1,1.3v1.2
				c0,0.7-0.5,1.3-1.1,1.3h-4.7h-0.5c-0.6,0-1.1-0.6-1.1-1.3V123V60.7C835.8,59.9,836.3,59.3,836.9,59.3z"/>
			
				<linearGradient id="SVGID_7_" gradientUnits="userSpaceOnUse" x1="784.6736" y1="-110.0001" x2="777.2285" y2="-109.9178" gradientTransform="matrix(1 0 0 1 0 202.0123)">
				<stop  offset="0" style="stop-color:#FFFFFF"/>
				<stop  offset="9.759391e-02" style="stop-color:#F9F9F9;stop-opacity:0.9707"/>
				<stop  offset="0.2217" style="stop-color:#EAEAEA;stop-opacity:0.9335"/>
				<stop  offset="0.36" style="stop-color:#D0D0D0;stop-opacity:0.892"/>
				<stop  offset="0.5087" style="stop-color:#ABABAB;stop-opacity:0.8474"/>
				<stop  offset="0.6658" style="stop-color:#7D7D7D;stop-opacity:0.8003"/>
				<stop  offset="0.83" style="stop-color:#434343;stop-opacity:0.751"/>
				<stop  offset="0.9971" style="stop-color:#010101;stop-opacity:0.7009"/>
				<stop  offset="1" style="stop-color:#000000;stop-opacity:0.7"/>
			</linearGradient>
			<path class="st17" d="M781.8,59.3h-1.1c-0.6,0-1.1,0.6-1.1,1.3v59.2c0,0.7-0.5,1.3-1.1,1.3h-1.9c-0.6,0-1.1,0.6-1.1,1.3v1.2
				c0,0.7,0.5,1.3,1.1,1.3h4.7h0.5c0.6,0,1.1-0.6,1.1-1.3V123V60.7C782.9,59.9,782.4,59.3,781.8,59.3z"/>
		</g>
		<g id="Layer_1_2_">
			<title>antobot_icon</title>
			<g id="base_1_">
				<path class="st5" d="M851.7,69.1h-85.4c-8.9,0-16.2-7.3-16.2-16.2V-51.2c0-8.9,7.3-16.2,16.2-16.2h85.4
					c8.9,0,16.2,7.3,16.2,16.2V52.9C867.9,61.8,860.6,69.1,851.7,69.1z"/>
				<path class="st1" d="M782-47.7h17.2c2.2,0,4,1.8,4,4v19.2c0,2.2-1.8,4-4,4H782c-2.2,0-4-1.8-4-4v-19.3
					C778.1-45.9,779.8-47.7,782-47.7z"/>
				<path class="st1" d="M819.5-47.7h17.2c2.2,0,4,1.8,4,4v19.2c0,2.2-1.8,4-4,4h-17.2c-2.2,0-4-1.8-4-4v-19.3
					C815.6-45.9,817.4-47.7,819.5-47.7z"/>
			</g>
			<g id="Layer_4_2_">
				<path class="st6" d="M880.5-93.4c-30.7-36.6-79.5-31.7-91.6-29.8c-1.6,0.2-3-0.8-3.4-2.3l0,0c-0.4-1.6,0.7-3.2,2.3-3.6
					c0.1,0,0.1,0,0.2,0c11.2-1.7,22.6-2,33.8-0.7c26.2,3,48,14.2,63.3,32.5c1.1,1.3,0.9,3.2-0.3,4.2l-0.1,0.1l0,0
					C883.4-92,881.6-92.2,880.5-93.4z"/>
				<path class="st6" d="M864.5-89.4c-22.3-26.6-57.8-23.1-66.5-21.7c-1.1,0.2-2.2-0.6-2.5-1.7l0,0c-0.3-1.2,0.5-2.3,1.7-2.6h0.1
					c8.1-1.2,16.4-1.4,24.6-0.5c19,2.2,34.9,10.4,46,23.6c0.8,0.9,0.7,2.3-0.3,3.1c0,0,0,0-0.1,0l0,0
					C866.6-88.4,865.2-88.5,864.5-89.4z"/>
				<path class="st6" d="M843.3-86.5c-10.2-12.3-26.6-10.6-30.6-10c-0.5,0.1-1-0.3-1.1-0.8l0,0c-0.1-0.5,0.2-1.1,0.8-1.2
					c0,0,0,0,0.1,0c3.7-0.6,7.5-0.6,11.3-0.2c8.7,1,16,4.8,21.1,10.9c0.4,0.4,0.3,1.1-0.1,1.4l0,0l0,0
					C844.3-86.1,843.7-86.1,843.3-86.5z"/>
			</g>
			<circle class="st6" cx="808.7" cy="-7" r="6.9"/>
			<text transform="matrix(1 0 0 1 855.4324 120.2708)" class="st24 st25" style="font-size:16.93px;">R</text>
			<text transform="matrix(1 0 0 1 855.4324 120.2708)" class="st1 st25" style="font-size:16.93px;">R</text>
		</g>
		<path class="st7" d="M903,11.8c-0.6-5.6-2.6-10.4-4.7-13.2c0.5-1.3,0.3-2.8-0.7-4l-1.8-2.3c1.4-2.8,2.1-5.8,2.1-9
			c0-11-8.8-20-19.6-20c-3.3,0-6.6,0.9-9.4,2.5c-0.4,0.2-1-0.1-1-0.6V0.3c3.1,2,6.7,3,10.4,3c0.3,0,0.6,0,0.9,0l2.7,3.5
			c0.7,0.9,1.7,1.5,2.8,1.6c0.6,0.1,1.1,0,1.6-0.1c2.1,2.5,2.8,4.9,1.9,10.7c-0.7,5-7.1,12.3-9.5,14.7l-0.3,0.3
			c-0.3,0.3-0.5,0.7-0.5,1.1v8.1c0,0.6,0.5,1.1,1.1,1.1h8.1c0.3,0,0.6-0.1,0.8-0.3l0.4-0.3C902,32.1,903.9,19.9,903,11.8z
			 M883.8-21.4l-9.2,6.1c-0.6,0.4-1.5,0.2-1.9-0.4s-0.2-1.5,0.4-1.9l2.2-1.4c-0.9-0.8-1.3-2-0.9-3.2c0.5-1.7,2.2-2.6,3.9-2.1
			c1,0.3,1.8,1.1,2.1,2l2-1.3c0.6-0.4,1.5-0.2,1.9,0.4C884.7-22.6,884.5-21.8,883.8-21.4z"/>
		<g>
			<path class="st8" d="M883.3,36.4c0.3,0.3,0.8,0.3,1.1,0c5.5-5.4,11.8-13.6,11.3-23.3c-0.2-4.5-1.9-7.7-2.7-9.1
				c-0.2-0.4-0.8-0.5-1.2-0.2l-0.6,0.5l0.6-0.5l0,0c-0.3,0.2-0.4,0.7-0.2,1c0.7,1.2,2.3,4.2,2.5,8.4c0.3,7.2-3.4,14.7-10.8,21.9
				C883,35.6,883,36.1,883.3,36.4L883.3,36.4z"/>
		</g>
		<path class="st7" d="M729.9,43.6l0.4,0.3c0.2,0.2,0.5,0.3,0.8,0.3h8.1c0.6,0,1.1-0.5,1.1-1.1V35c0-0.4-0.2-0.8-0.5-1.1l-0.3-0.3
			c-2.4-2.4-8.8-9.6-9.5-14.7c-0.8-5.8-0.1-8.2,1.9-10.7c0.5,0.1,1.1,0.2,1.6,0.1c1.1-0.1,2.1-0.7,2.8-1.6l2.7-3.5
			c0.3,0,0.6,0,0.9,0c3.7,0,7.3-1.1,10.4-3v-35.1c0,0.5-0.5,0.8-1,0.6c-2.8-1.6-6.1-2.5-9.4-2.5c-10.8,0-19.6,9-19.6,20
			c0,3.1,0.7,6.2,2.1,9l-1.8,2.3c-0.9,1.2-1.1,2.7-0.7,4c-2.1,2.8-4.1,7.7-4.7,13.2C714.5,19.9,716.4,32.1,729.9,43.6z M734.2-23.3
			c0.4-0.6,1.3-0.8,1.9-0.4l2,1.3c0.3-0.9,1.1-1.7,2.1-2c1.7-0.5,3.4,0.4,3.9,2.1c0.4,1.2,0,2.5-0.9,3.2l2.2,1.4
			c0.6,0.4,0.8,1.3,0.4,1.9c-0.4,0.6-1.3,0.8-1.9,0.4l-9.2-6.1C733.9-21.8,733.8-22.7,734.2-23.3z"/>
		<g>
			<path class="st8" d="M735.1,36.4c-0.3,0.3-0.8,0.3-1.1,0c-5.5-5.4-11.8-13.6-11.3-23.3c0.2-4.5,1.9-7.7,2.7-9.1
				c0.2-0.4,0.8-0.5,1.2-0.2l0.6,0.5l-0.6-0.5l0,0c0.3,0.2,0.4,0.7,0.2,1c-0.7,1.2-2.3,4.2-2.5,8.4c-0.3,7.2,3.4,14.7,10.8,21.9
				C735.4,35.6,735.4,36.1,735.1,36.4L735.1,36.4z"/>
		</g>
		<g class="st9">
			
				<linearGradient id="SVGID_8_" gradientUnits="userSpaceOnUse" x1="808.8956" y1="-183.9877" x2="808.95" y2="-198.3515" gradientTransform="matrix(1 0 0 1 0 202.0123)">
				<stop  offset="0" style="stop-color:#FFFFFF"/>
				<stop  offset="2.861995e-02" style="stop-color:#E8E8E8"/>
				<stop  offset="9.635282e-02" style="stop-color:#B8B8B8"/>
				<stop  offset="0.1697" style="stop-color:#8C8C8C"/>
				<stop  offset="0.2469" style="stop-color:#666666"/>
				<stop  offset="0.3291" style="stop-color:#474747"/>
				<stop  offset="0.4178" style="stop-color:#2D2D2D"/>
				<stop  offset="0.5155" style="stop-color:#191919"/>
				<stop  offset="0.6268" style="stop-color:#0B0B0B"/>
				<stop  offset="0.7635" style="stop-color:#020202"/>
				<stop  offset="1" style="stop-color:#000000"/>
			</linearGradient>
			<path class="st18" d="M768.6,18.6h40.3h40.3c0.6,0,1-0.8,1-1.7s-0.5-1.7-1-1.7h-40.3h-40.3c-0.6,0-1,0.8-1,1.7
				C767.6,17.9,768.1,18.6,768.6,18.6z"/>
			
				<linearGradient id="SVGID_9_" gradientUnits="userSpaceOnUse" x1="808.6958" y1="-158.3604" x2="808.7504" y2="-172.7242" gradientTransform="matrix(1 0 0 1 0 202.0123)">
				<stop  offset="0" style="stop-color:#FFFFFF"/>
				<stop  offset="2.861995e-02" style="stop-color:#E8E8E8"/>
				<stop  offset="9.635282e-02" style="stop-color:#B8B8B8"/>
				<stop  offset="0.1697" style="stop-color:#8C8C8C"/>
				<stop  offset="0.2469" style="stop-color:#666666"/>
				<stop  offset="0.3291" style="stop-color:#474747"/>
				<stop  offset="0.4178" style="stop-color:#2D2D2D"/>
				<stop  offset="0.5155" style="stop-color:#191919"/>
				<stop  offset="0.6268" style="stop-color:#0B0B0B"/>
				<stop  offset="0.7635" style="stop-color:#020202"/>
				<stop  offset="1" style="stop-color:#000000"/>
			</linearGradient>
			<path class="st19" d="M768.4,44.3h40.3H849c0.6,0,1-0.8,1-1.7s-0.5-1.7-1-1.7h-40.3h-40.3c-0.6,0-1,0.8-1,1.7
				S767.9,44.3,768.4,44.3z"/>
			
				<linearGradient id="SVGID_10_" gradientUnits="userSpaceOnUse" x1="808.8959" y1="-171.1741" x2="808.9505" y2="-185.5379" gradientTransform="matrix(1 0 0 1 0 202.0123)">
				<stop  offset="0" style="stop-color:#FFFFFF"/>
				<stop  offset="2.861995e-02" style="stop-color:#E8E8E8"/>
				<stop  offset="9.635282e-02" style="stop-color:#B8B8B8"/>
				<stop  offset="0.1697" style="stop-color:#8C8C8C"/>
				<stop  offset="0.2469" style="stop-color:#666666"/>
				<stop  offset="0.3291" style="stop-color:#474747"/>
				<stop  offset="0.4178" style="stop-color:#2D2D2D"/>
				<stop  offset="0.5155" style="stop-color:#191919"/>
				<stop  offset="0.6268" style="stop-color:#0B0B0B"/>
				<stop  offset="0.7635" style="stop-color:#020202"/>
				<stop  offset="1" style="stop-color:#000000"/>
			</linearGradient>
			<path class="st20" d="M768.6,31.5h40.3h40.3c0.6,0,1-0.8,1-1.7s-0.5-1.7-1-1.7h-40.3h-40.3c-0.6,0-1,0.8-1,1.7
				S768.1,31.5,768.6,31.5z"/>
		</g>
		<path class="st13" d="M798.8-29.4V-30c0-2.3-1.3-4.5-3.4-5.6v-4.5c0-2.5-1.8-4.7-4.2-5H790c-2.4,0.3-4.3,2.3-4.3,4.8v4.8l0,0
			c-0.3,0.1-0.6,0.2-0.9,0.4l-0.1,0.1c-1.5,1.2-2.4,3-2.4,4.9v0.6c0,3.5,2.8,6.4,6.4,6.4h3.8C796-23.1,798.8-25.9,798.8-29.4z
			 M786.4-40.2c0-2.1,1.5-4.1,3.7-4.3c2.6-0.3,4.8,1.7,4.8,4.2v4.7h-3.3h-1.3h-3.9l0,0V-40.2z M791.4-33.9c0.5,0.3,0.8,0.9,0.7,1.6
			c-0.1,0.6-0.6,1.1-1.3,1.2l-0.3,0.1l-0.3-0.1c-0.6-0.1-1.1-0.6-1.2-1.2c-0.1-0.7,0.2-1.3,0.7-1.6h0.5H791.4z M791.5-27.4h-1.9
			l1-3.6L791.5-27.4z"/>
		<path class="st14" d="M833.3-45.1c-2.9-0.4-5.4,1.9-5.4,4.8v4.6l0,0h-4.7c-0.5,0-1.1,0.4-1.6,0.7l-0.1,0.1c-1.4,1.2-2.3,3-2.3,4.8
			v0.6c0,3.5,2.8,6.3,6.3,6.3h3.7c3.5,0,6.3-2.8,6.3-6.3v-0.6c0-2.3-1.2-4.6-3.3-5.5c-0.2-0.1-0.7-0.2-0.7-0.2h-2.9v-4.4
			c0-2.1,1.5-4,3.6-4.3c2.5-0.3,4.7,1.6,4.7,4.1v4.6h0.7v-4.4C837.5-42.6,835.7-44.8,833.3-45.1z M828.1-33.8
			c0.6,0.2,0.8,0.9,0.7,1.6c-0.1,0.6-0.6,1.1-1.3,1.2l-0.3,0.1l-0.3-0.1c-0.6-0.1-1.1-0.6-1.2-1.2c-0.1-0.7,0.1-1.4,0.7-1.6
			C826.8-33.9,828-33.8,828.1-33.8z M828.2-27.4h-1.9l1-3.5L828.2-27.4z M819.8-29.4V-30C819.8-31.8,819.8-26.3,819.8-29.4z"/>
		<path class="st21" d="M969.8,260.4H647.5c-5,0-9-4-9-9v-74.7c0-5,4-9,9-9h322.3c5,0,9,4,9,9v74.7
			C978.8,256.4,974.8,260.4,969.8,260.4z"/>
		
			<text transform="matrix(1.0008 0 0.1573 0.9876 664.3712 233.8387)" class="st30" style="fill:none;stroke:#FFFFFF;stroke-width:0.5;stroke-miterlimit:10; font-size:74.8212px;">AntoTech</text>
	</g>
	<text transform="matrix(1 0 0 1 289.8735 254.7071)" class="st32 st30" style="font-size:14.6898px;">Herramientas de alta tecnologia para cerrajeros</text>
</g>
<g id="antotech_x5F_150_x5F_clear">
	<g>
		<g id="Layer_4_4_">
		</g>
		<g id="Layer_3_2_">
			<path class="st0" d="M74,17.5c-5.3,0-9.6,4.3-9.6,9.6c4,0.1,11.3,0.2,19.2,0C83.6,21.7,79.2,17.5,74,17.5z M73.9,25.2
				c-1.6,0-2.9-1.3-2.9-2.9c0-1.6,1.3-2.9,2.9-2.9c1.6,0,2.9,1.3,2.9,2.9C76.7,23.9,75.5,25.2,73.9,25.2z"/>
		</g>
		<circle class="st1" cx="93.5" cy="93.6" r="3.8"/>
		<g id="Layer_2_3_">
			<path class="st2" d="M95.6,104.8c0-3.2-6.2-6-6.2-6v-3.4h-0.9v-1.9h-2.2v-3l1.1-0.9v-1.5l-0.2-0.8v-0.9l0.2-0.9v-2.2l-1.1-1.2
				v-1.8l2.2-2v-2.1L86.3,75v-2.1l-7.2,0L79.3,98l-1.4,1.3v7.9l1,1.2c0,0,13.4,0.2,14.8,0c1.3-0.2,2-1.7,2-1.7
				S95.7,107.9,95.6,104.8z M82,105.8c-0.9,0-1.5-0.7-1.5-1.5c0-0.9,0.7-1.5,1.5-1.5c0.9,0,1.5,0.7,1.5,1.5
				C83.6,105.1,82.8,105.8,82,105.8z"/>
			<path class="st2" d="M68.7,98.1L68.8,73h-7.2v2.1l-2.2,1.3v2.1l2.2,2v1.8l-1.1,1.2v2.2l0.2,0.9v0.9l-0.2,0.8v1.5l1.1,0.9v3h-2.2
				v1.9h-0.9v3.4c0,0-6.1,2.8-6.2,6c-0.1,3.2,0,2,0,2s0.6,1.5,2,1.7c1.4,0.2,14.8,0,14.8,0l1-1.2v-7.9L68.7,98.1z M66.1,105.8
				c-0.9,0-1.5-0.7-1.5-1.5c0-0.9,0.7-1.5,1.5-1.5c0.9,0,1.5,0.7,1.5,1.5C67.6,105.1,66.9,105.8,66.1,105.8z"/>
			
				<linearGradient id="SVGID_11_" gradientUnits="userSpaceOnUse" x1="83.9607" y1="-116.8225" x2="86.7498" y2="-116.8225" gradientTransform="matrix(1 0 0 1 0 202.0123)">
				<stop  offset="0" style="stop-color:#FFFFFF"/>
				<stop  offset="0.1036" style="stop-color:#CFCFCF;stop-opacity:0.9689"/>
				<stop  offset="0.2352" style="stop-color:#999999;stop-opacity:0.9294"/>
				<stop  offset="0.3682" style="stop-color:#6A6A6A;stop-opacity:0.8896"/>
				<stop  offset="0.4998" style="stop-color:#444444;stop-opacity:0.8501"/>
				<stop  offset="0.6296" style="stop-color:#262626;stop-opacity:0.8111"/>
				<stop  offset="0.7574" style="stop-color:#111111;stop-opacity:0.7728"/>
				<stop  offset="0.882" style="stop-color:#040404;stop-opacity:0.7354"/>
				<stop  offset="1" style="stop-color:#000000;stop-opacity:0.7"/>
			</linearGradient>
			<path class="st22" d="M84.4,72.9h0.4c0.2,0,0.4,0.2,0.4,0.5v22.2c0,0.3,0.2,0.5,0.4,0.5h0.7c0.2,0,0.4,0.2,0.4,0.5V97
				c0,0.3-0.2,0.5-0.4,0.5h-1.8h-0.2c-0.2,0-0.4-0.2-0.4-0.5v-0.3V73.4C84,73.1,84.2,72.9,84.4,72.9z"/>
			
				<linearGradient id="SVGID_12_" gradientUnits="userSpaceOnUse" x1="64.8112" y1="-116.8366" x2="62.0223" y2="-116.8057" gradientTransform="matrix(1 0 0 1 0 202.0123)">
				<stop  offset="0" style="stop-color:#FFFFFF"/>
				<stop  offset="9.759391e-02" style="stop-color:#F9F9F9;stop-opacity:0.9707"/>
				<stop  offset="0.2217" style="stop-color:#EAEAEA;stop-opacity:0.9335"/>
				<stop  offset="0.36" style="stop-color:#D0D0D0;stop-opacity:0.892"/>
				<stop  offset="0.5087" style="stop-color:#ABABAB;stop-opacity:0.8474"/>
				<stop  offset="0.6658" style="stop-color:#7D7D7D;stop-opacity:0.8003"/>
				<stop  offset="0.83" style="stop-color:#434343;stop-opacity:0.751"/>
				<stop  offset="0.9971" style="stop-color:#010101;stop-opacity:0.7009"/>
				<stop  offset="1" style="stop-color:#000000;stop-opacity:0.7"/>
			</linearGradient>
			<path class="st23" d="M63.7,72.9h-0.4c-0.2,0-0.4,0.2-0.4,0.5v22.2c0,0.3-0.2,0.5-0.4,0.5h-0.7c-0.2,0-0.4,0.2-0.4,0.5V97
				c0,0.3,0.2,0.5,0.4,0.5h1.8h0.2c0.2,0,0.4-0.2,0.4-0.5v-0.3V73.4C64.2,73.1,64,72.9,63.7,72.9z"/>
		</g>
		<g id="Layer_1_3_">
			<title>antobot_icon</title>
			<g id="base_2_">
				<path class="st5" d="M89.9,76.6h-32c-3.3,0-6.1-2.7-6.1-6.1v-39c0-3.3,2.7-6.1,6.1-6.1h32c3.3,0,6.1,2.7,6.1,6.1v39
					C96,73.9,93.3,76.6,89.9,76.6z"/>
				<path class="st1" d="M63.8,32.8h6.4c0.8,0,1.5,0.7,1.5,1.5v7.2c0,0.8-0.7,1.5-1.5,1.5h-6.4c-0.8,0-1.5-0.7-1.5-1.5v-7.2
					C62.4,33.5,63,32.8,63.8,32.8z"/>
				<path class="st1" d="M77.9,32.8h6.4c0.8,0,1.5,0.7,1.5,1.5v7.2c0,0.8-0.7,1.5-1.5,1.5h-6.4c-0.8,0-1.5-0.7-1.5-1.5v-7.2
					C76.4,33.5,77.1,32.8,77.9,32.8z"/>
			</g>
			<g id="Layer_4_3_">
				<path class="st6" d="M100.7,15.7C89.2,2,70.9,3.8,66.4,4.5c-0.6,0.1-1.1-0.3-1.3-0.9l0,0C65,3.1,65.4,2.5,66,2.3c0,0,0,0,0.1,0
					c4.2-0.6,8.5-0.7,12.7-0.3c9.8,1.1,18,5.3,23.7,12.2c0.4,0.5,0.3,1.2-0.1,1.6l0,0l0,0C101.8,16.2,101.1,16.2,100.7,15.7z"/>
				<path class="st6" d="M94.7,17.2c-8.4-10-21.7-8.7-24.9-8.1c-0.4,0.1-0.8-0.2-0.9-0.6l0,0c-0.1-0.4,0.2-0.9,0.6-1h0
					c3-0.4,6.1-0.5,9.2-0.2c7.1,0.8,13.1,3.9,17.2,8.8c0.3,0.3,0.3,0.9-0.1,1.2c0,0,0,0,0,0l0,0C95.5,17.6,95,17.5,94.7,17.2z"/>
				<path class="st6" d="M86.8,18.3c-3.8-4.6-10-4-11.5-3.7c-0.2,0-0.4-0.1-0.4-0.3l0,0c0-0.2,0.1-0.4,0.3-0.4c0,0,0,0,0,0
					c1.4-0.2,2.8-0.2,4.2-0.1c3.3,0.4,6,1.8,7.9,4.1c0.1,0.1,0.1,0.4,0,0.5l0,0l0,0C87.2,18.4,86.9,18.4,86.8,18.3z"/>
			</g>
			<circle class="st6" cx="73.8" cy="48.1" r="2.6"/>
			<text transform="matrix(1 0 0 1 91.3154 95.7641)" class="st24 st25 st26">R</text>
			<text transform="matrix(1 0 0 1 91.3154 95.7641)" class="st1 st25 st26">R</text>
		</g>
		<path class="st7" d="M109.1,55.1c-0.2-2.1-1-3.9-1.8-4.9c0.2-0.5,0.1-1-0.3-1.5l-0.7-0.9c0.5-1,0.8-2.2,0.8-3.4
			c0-4.1-3.3-7.5-7.3-7.5c-1.2,0-2.5,0.3-3.5,0.9c-0.1,0.1-0.4,0-0.4-0.2v13.1c1.2,0.7,2.5,1.1,3.9,1.1c0.1,0,0.2,0,0.3,0l1,1.3
			c0.3,0.3,0.6,0.6,1,0.6c0.2,0,0.4,0,0.6,0c0.8,0.9,1,1.8,0.7,4c-0.3,1.9-2.7,4.6-3.6,5.5l-0.1,0.1c-0.1,0.1-0.2,0.3-0.2,0.4v3
			c0,0.2,0.2,0.4,0.4,0.4h3c0.1,0,0.2,0,0.3-0.1l0.1-0.1C108.8,62.7,109.4,58.1,109.1,55.1z M101.9,42.7L98.5,45
			c-0.2,0.1-0.6,0.1-0.7-0.1c-0.1-0.2-0.1-0.6,0.1-0.7l0.8-0.5c-0.3-0.3-0.5-0.7-0.3-1.2c0.2-0.6,0.8-1,1.5-0.8
			c0.4,0.1,0.7,0.4,0.8,0.7l0.7-0.5c0.2-0.1,0.6-0.1,0.7,0.1C102.2,42.2,102.2,42.5,101.9,42.7z"/>
		<g>
			<path class="st8" d="M101.7,64.3c0.1,0.1,0.3,0.1,0.4,0c2.1-2,4.4-5.1,4.2-8.7c-0.1-1.7-0.7-2.9-1-3.4c-0.1-0.1-0.3-0.2-0.4-0.1
				l-0.2,0.2l0.2-0.2l0,0c-0.1,0.1-0.1,0.3-0.1,0.4c0.3,0.4,0.9,1.6,0.9,3.1c0.1,2.7-1.3,5.5-4,8.2C101.6,64,101.6,64.2,101.7,64.3
				L101.7,64.3z"/>
		</g>
		<path class="st7" d="M44.3,67.1l0.1,0.1c0.1,0.1,0.2,0.1,0.3,0.1h3c0.2,0,0.4-0.2,0.4-0.4v-3c0-0.1-0.1-0.3-0.2-0.4l-0.1-0.1
			c-0.9-0.9-3.3-3.6-3.6-5.5c-0.3-2.2,0-3.1,0.7-4c0.2,0,0.4,0.1,0.6,0c0.4,0,0.8-0.3,1-0.6l1-1.3c0.1,0,0.2,0,0.3,0
			c1.4,0,2.7-0.4,3.9-1.1V37.7c0,0.2-0.2,0.3-0.4,0.2c-1-0.6-2.3-0.9-3.5-0.9c-4,0-7.3,3.4-7.3,7.5c0,1.2,0.3,2.3,0.8,3.4l-0.7,0.9
			c-0.3,0.4-0.4,1-0.3,1.5c-0.8,1-1.5,2.9-1.8,4.9C38.5,58.1,39.2,62.7,44.3,67.1z M45.9,42c0.1-0.2,0.5-0.3,0.7-0.1l0.7,0.5
			c0.1-0.3,0.4-0.6,0.8-0.7c0.6-0.2,1.3,0.1,1.5,0.8c0.1,0.4,0,0.9-0.3,1.2l0.8,0.5c0.2,0.1,0.3,0.5,0.1,0.7s-0.5,0.3-0.7,0.1
			l-3.4-2.3C45.8,42.5,45.7,42.2,45.9,42z"/>
		<g>
			<path class="st8" d="M46.2,64.3c-0.1,0.1-0.3,0.1-0.4,0c-2.1-2-4.4-5.1-4.2-8.7c0.1-1.7,0.7-2.9,1-3.4c0.1-0.1,0.3-0.2,0.4-0.1
				l0.2,0.2l-0.2-0.2l0,0c0.1,0.1,0.1,0.3,0.1,0.4c-0.3,0.4-0.9,1.6-0.9,3.1c-0.1,2.7,1.3,5.5,4,8.2C46.4,64,46.4,64.2,46.2,64.3
				L46.2,64.3z"/>
		</g>
		<g class="st9">
			
				<linearGradient id="SVGID_13_" gradientUnits="userSpaceOnUse" x1="73.8899" y1="-144.5475" x2="73.9104" y2="-149.9279" gradientTransform="matrix(1 0 0 1 0 202.0123)">
				<stop  offset="0" style="stop-color:#FFFFFF"/>
				<stop  offset="2.861995e-02" style="stop-color:#E8E8E8"/>
				<stop  offset="9.635282e-02" style="stop-color:#B8B8B8"/>
				<stop  offset="0.1697" style="stop-color:#8C8C8C"/>
				<stop  offset="0.2469" style="stop-color:#666666"/>
				<stop  offset="0.3291" style="stop-color:#474747"/>
				<stop  offset="0.4178" style="stop-color:#2D2D2D"/>
				<stop  offset="0.5155" style="stop-color:#191919"/>
				<stop  offset="0.6268" style="stop-color:#0B0B0B"/>
				<stop  offset="0.7635" style="stop-color:#020202"/>
				<stop  offset="1" style="stop-color:#000000"/>
			</linearGradient>
			<path class="st27" d="M58.8,57.7h15.1H89c0.2,0,0.4-0.3,0.4-0.6s-0.2-0.6-0.4-0.6H73.9H58.8c-0.2,0-0.4,0.3-0.4,0.6
				C58.4,57.4,58.6,57.7,58.8,57.7z"/>
			
				<linearGradient id="SVGID_14_" gradientUnits="userSpaceOnUse" x1="73.815" y1="-134.9479" x2="73.8354" y2="-140.3283" gradientTransform="matrix(1 0 0 1 0 202.0123)">
				<stop  offset="0" style="stop-color:#FFFFFF"/>
				<stop  offset="2.861995e-02" style="stop-color:#E8E8E8"/>
				<stop  offset="9.635282e-02" style="stop-color:#B8B8B8"/>
				<stop  offset="0.1697" style="stop-color:#8C8C8C"/>
				<stop  offset="0.2469" style="stop-color:#666666"/>
				<stop  offset="0.3291" style="stop-color:#474747"/>
				<stop  offset="0.4178" style="stop-color:#2D2D2D"/>
				<stop  offset="0.5155" style="stop-color:#191919"/>
				<stop  offset="0.6268" style="stop-color:#0B0B0B"/>
				<stop  offset="0.7635" style="stop-color:#020202"/>
				<stop  offset="1" style="stop-color:#000000"/>
			</linearGradient>
			<path class="st28" d="M58.7,67.3h15.1h15.1c0.2,0,0.4-0.3,0.4-0.6c0-0.3-0.2-0.6-0.4-0.6H73.8H58.7c-0.2,0-0.4,0.3-0.4,0.6
				C58.3,67,58.5,67.3,58.7,67.3z"/>
			
				<linearGradient id="SVGID_15_" gradientUnits="userSpaceOnUse" x1="73.8899" y1="-139.7477" x2="73.9104" y2="-145.1282" gradientTransform="matrix(1 0 0 1 0 202.0123)">
				<stop  offset="0" style="stop-color:#FFFFFF"/>
				<stop  offset="2.861995e-02" style="stop-color:#E8E8E8"/>
				<stop  offset="9.635282e-02" style="stop-color:#B8B8B8"/>
				<stop  offset="0.1697" style="stop-color:#8C8C8C"/>
				<stop  offset="0.2469" style="stop-color:#666666"/>
				<stop  offset="0.3291" style="stop-color:#474747"/>
				<stop  offset="0.4178" style="stop-color:#2D2D2D"/>
				<stop  offset="0.5155" style="stop-color:#191919"/>
				<stop  offset="0.6268" style="stop-color:#0B0B0B"/>
				<stop  offset="0.7635" style="stop-color:#020202"/>
				<stop  offset="1" style="stop-color:#000000"/>
			</linearGradient>
			<path class="st29" d="M58.8,62.5h15.1H89c0.2,0,0.4-0.3,0.4-0.6s-0.2-0.6-0.4-0.6H73.9H58.8c-0.2,0-0.4,0.3-0.4,0.6
				S58.6,62.5,58.8,62.5z"/>
		</g>
		<path class="st13" d="M70.1,39.7v-0.2c0-0.9-0.5-1.7-1.3-2.1v-1.7c0-0.9-0.7-1.8-1.6-1.9h-0.4c-0.9,0.1-1.6,0.9-1.6,1.8v1.8l0,0
			c-0.1,0-0.2,0.1-0.3,0.1l0,0c-0.6,0.4-0.9,1.1-0.9,1.8v0.2c0,1.3,1,2.4,2.4,2.4h1.4C69.1,42.1,70.1,41,70.1,39.7z M65.4,35.6
			c0-0.8,0.6-1.5,1.4-1.6c1-0.1,1.8,0.6,1.8,1.6v1.8h-1.2h-0.5h-1.5l0,0V35.6z M67.3,38c0.2,0.1,0.3,0.3,0.3,0.6
			c0,0.2-0.2,0.4-0.5,0.4l-0.1,0l-0.1,0c-0.2,0-0.4-0.2-0.4-0.4c0-0.3,0.1-0.5,0.3-0.6h0.2H67.3z M67.4,40.4h-0.7l0.4-1.3L67.4,40.4
			z"/>
		<path class="st14" d="M83,33.8c-1.1-0.1-2,0.7-2,1.8v1.7l0,0h-1.8c-0.2,0-0.4,0.1-0.6,0.3l0,0c-0.5,0.4-0.9,1.1-0.9,1.8v0.2
			c0,1.3,1,2.4,2.4,2.4h1.4c1.3,0,2.4-1,2.4-2.4v-0.2c0-0.9-0.4-1.7-1.2-2.1c-0.1,0-0.3-0.1-0.3-0.1h-1.1v-1.6
			c0-0.8,0.6-1.5,1.3-1.6c0.9-0.1,1.8,0.6,1.8,1.5v1.7h0.3v-1.6C84.6,34.7,83.9,33.9,83,33.8z M81.1,38c0.2,0.1,0.3,0.3,0.3,0.6
			c0,0.2-0.2,0.4-0.5,0.4l-0.1,0l-0.1,0c-0.2,0-0.4-0.2-0.4-0.4c0-0.3,0-0.5,0.3-0.6C80.6,38,81,38,81.1,38z M81.1,40.4h-0.7
			l0.4-1.3L81.1,40.4z M78,39.7v-0.2C78,38.8,78,40.8,78,39.7z"/>
		<path class="st15" d="M134.2,148.2H13.4c-1.9,0-3.4-1.5-3.4-3.4v-28c0-1.9,1.5-3.4,3.4-3.4h120.7c1.9,0,3.4,1.5,3.4,3.4v28
			C137.5,146.7,136,148.2,134.2,148.2z"/>
		<text transform="matrix(1.0008 0 0.1573 0.9876 19.7474 135.2829)" class="st7 st30 st31">AntoTech</text>
	</g>
	<text transform="matrix(1 0 0 1 18.8174 144.02)" class="st32 st30 st33">Herramientas de alta tecnologia para cerrajeros</text>
</g>
</svg>
