<svg id="Layer_1" data-name="Layer 1" xmlns="http://www.w3.org/2000/svg" xmlns:xlink="http://www.w3.org/1999/xlink" viewBox="0 0 352 404.61"><defs><style>.cls-1{fill:#707070;}.cls-2,.cls-9{fill:none;stroke:#fff;stroke-miterlimit:10;}.cls-3{fill:#aeb0af;}.cls-4{fill:url(#linear-gradient);}.cls-5{fill:url(#linear-gradient-2);}.cls-6{fill:#000206;}.cls-7{fill:#f03335;}.cls-19,.cls-8,.cls-9{isolation:isolate;}.cls-8,.cls-9{font-size:16.93px;font-family:ArialMT, Arial;}.cls-8{fill:#fff;}.cls-10,.cls-19{fill:#febe10;}.cls-11{fill:#a67c52;}.cls-12{opacity:0.89;}.cls-13{fill:url(#linear-gradient-3);}.cls-14{fill:url(#linear-gradient-4);}.cls-15{fill:url(#linear-gradient-5);}.cls-16{fill:#f0493e;}.cls-17{fill:#1f8dc5;}.cls-18{fill:#014080;}.cls-19{font-size:74.82px;}.cls-19,.cls-21{font-family:TimesNewRomanPS-BoldItalicMT, Times New Roman;font-weight:700;font-style:italic;}.cls-20{letter-spacing:-0.09em;}.cls-21{font-size:14.69px;fill:#fffef9;}</style><linearGradient id="linear-gradient" x1="202.78" y1="173.71" x2="210.23" y2="173.71" gradientTransform="matrix(1, 0, 0, -1, 0, 402.01)" gradientUnits="userSpaceOnUse"><stop offset="0" stop-color="#fff"/><stop offset="0.1" stop-color="#cfcfcf" stop-opacity="0.97"/><stop offset="0.24" stop-color="#999" stop-opacity="0.93"/><stop offset="0.37" stop-color="#6a6a6a" stop-opacity="0.89"/><stop offset="0.5" stop-color="#444" stop-opacity="0.85"/><stop offset="0.63" stop-color="#262626" stop-opacity="0.81"/><stop offset="0.76" stop-color="#111" stop-opacity="0.77"/><stop offset="0.88" stop-color="#040404" stop-opacity="0.74"/><stop offset="1" stop-opacity="0.7"/></linearGradient><linearGradient id="linear-gradient-2" x1="151.66" y1="173.74" x2="144.21" y2="173.66" gradientTransform="matrix(1, 0, 0, -1, 0, 402.01)" gradientUnits="userSpaceOnUse"><stop offset="0" stop-color="#fff"/><stop offset="0.1" stop-color="#f9f9f9" stop-opacity="0.97"/><stop offset="0.22" stop-color="#eaeaea" stop-opacity="0.93"/><stop offset="0.36" stop-color="#d0d0d0" stop-opacity="0.89"/><stop offset="0.51" stop-color="#ababab" stop-opacity="0.85"/><stop offset="0.67" stop-color="#7d7d7d" stop-opacity="0.8"/><stop offset="0.83" stop-color="#434343" stop-opacity="0.75"/><stop offset="1" stop-color="#010101" stop-opacity="0.7"/><stop offset="1" stop-opacity="0.7"/></linearGradient><linearGradient id="linear-gradient-3" x1="175.9" y1="247.73" x2="175.95" y2="262.09" gradientTransform="matrix(1, 0, 0, -1, 0, 402.01)" gradientUnits="userSpaceOnUse"><stop offset="0" stop-color="#fff"/><stop offset="0.03" stop-color="#e8e8e8"/><stop offset="0.1" stop-color="#b8b8b8"/><stop offset="0.17" stop-color="#8c8c8c"/><stop offset="0.25" stop-color="#666"/><stop offset="0.33" stop-color="#474747"/><stop offset="0.42" stop-color="#2d2d2d"/><stop offset="0.52" stop-color="#191919"/><stop offset="0.63" stop-color="#0b0b0b"/><stop offset="0.76" stop-color="#020202"/><stop offset="1"/></linearGradient><linearGradient id="linear-gradient-4" x1="175.7" y1="222.1" x2="175.75" y2="236.46" xlink:href="#linear-gradient-3"/><linearGradient id="linear-gradient-5" x1="175.9" y1="234.91" x2="175.95" y2="249.28" xlink:href="#linear-gradient-3"/></defs><title>antobot-logo-main</title><g id="Layer_3" data-name="Layer 3"><path class="cls-1" d="M176.1,47.51a25.65,25.65,0,0,0-25.6,25.6c10.8.2,30.2.5,51.2,0A25.59,25.59,0,0,0,176.1,47.51Zm-.2,20.6a7.7,7.7,0,1,1,7.7-7.7A7.7,7.7,0,0,1,175.9,68.11Z"/></g><circle class="cls-2" cx="228.3" cy="250.81" r="10.1"/><g id="Layer_2" data-name="Layer 2"><path class="cls-3" d="M233.9,280.61c-.1-8.5-16.6-15.9-16.6-15.9v-9h-2.4v-5h-5.8v-8l2.9-2.5v-3.9l-.6-2.1v-2.5l.6-2.3v-5.8l-2.9-3.2v-4.8l5.8-5.3v-5.6l-5.8-3.5v-5.6l-19.1-.1.3,67.1-3.7,3.5v21l2.6,3.2s35.8.5,39.4,0,5.3-4.5,5.3-4.5S234,289,233.9,280.61Zm-36.3,2.8a4.1,4.1,0,1,1,4.1-4.1A4.19,4.19,0,0,1,197.6,283.41Z"/><path class="cls-3" d="M162.1,262.81l.3-67.1H143.2v5.6l-5.8,3.5v5.6l5.8,5.3v4.8l-2.9,3.2v5.8l.6,2.3v2.5l-.6,2.1v3.9l2.9,2.5v8h-5.8v5H135v9s-16.4,7.5-16.6,16,0,5.3,0,5.3,1.6,4,5.3,4.5,39.4,0,39.4,0l2.6-3.2v-21Zm-7,20.6a4.1,4.1,0,1,1,4.1-4.1A4.19,4.19,0,0,1,155.1,283.41Z"/><path class="cls-4" d="M203.9,195.51H205a1.23,1.23,0,0,1,1.1,1.3V256a1.23,1.23,0,0,0,1.1,1.3h1.9a1.23,1.23,0,0,1,1.1,1.3v1.2a1.23,1.23,0,0,1-1.1,1.3h-5.2a1.23,1.23,0,0,1-1.1-1.3v-63.1A1.2,1.2,0,0,1,203.9,195.51Z"/><path class="cls-5" d="M148.8,195.51h-1.1a1.23,1.23,0,0,0-1.1,1.3V256a1.23,1.23,0,0,1-1.1,1.3h-1.9a1.23,1.23,0,0,0-1.1,1.3v1.2a1.23,1.23,0,0,0,1.1,1.3h5.2a1.23,1.23,0,0,0,1.1-1.3v-63.1A1.2,1.2,0,0,0,148.8,195.51Z"/></g><g id="Layer_1-2" data-name="Layer 1"><g id="base"><path class="cls-6" d="M218.6,205.31H133.2a16.26,16.26,0,0,1-16.2-16.2V85a16.26,16.26,0,0,1,16.2-16.2h85.4A16.26,16.26,0,0,1,234.8,85v104.1A16.13,16.13,0,0,1,218.6,205.31Z"/><path class="cls-2" d="M149,88.51h17.2a4,4,0,0,1,4,4v19.2a4,4,0,0,1-4,4H149a4,4,0,0,1-4-4V92.41A4.06,4.06,0,0,1,149,88.51Z"/><path class="cls-2" d="M186.5,88.51h17.2a4,4,0,0,1,4,4v19.2a4,4,0,0,1-4,4H186.5a4,4,0,0,1-4-4V92.41A4.13,4.13,0,0,1,186.5,88.51Z"/></g><g id="Layer_4" data-name="Layer 4"><path class="cls-7" d="M247.5,42.81C216.8,6.21,168,11.11,155.9,13a3.09,3.09,0,0,1-3.4-2.3h0a3,3,0,0,1,2.3-3.6h.2a127.58,127.58,0,0,1,33.8-.7c26.2,3,48,14.2,63.3,32.5a3,3,0,0,1-.3,4.2l-.1.1h0A3.1,3.1,0,0,1,247.5,42.81Z"/><path class="cls-7" d="M231.5,46.81c-22.3-26.6-57.8-23.1-66.5-21.7a2.28,2.28,0,0,1-2.5-1.7h0a2.17,2.17,0,0,1,1.7-2.6h.1a96.42,96.42,0,0,1,24.6-.5c19,2.2,34.9,10.4,46,23.6a2.13,2.13,0,0,1-.3,3.1h-.1A2.08,2.08,0,0,1,231.5,46.81Z"/><path class="cls-7" d="M210.3,49.71c-10.2-12.3-26.6-10.6-30.6-10a1,1,0,0,1-1.1-.8h0a1,1,0,0,1,.8-1.2h.1a42.69,42.69,0,0,1,11.3-.2c8.7,1,16,4.8,21.1,10.9a1,1,0,0,1-.1,1.4h0A1.2,1.2,0,0,1,210.3,49.71Z"/></g><circle class="cls-7" cx="175.7" cy="129.21" r="6.9"/><text class="cls-8" transform="translate(222.42 256.53)">R</text><text class="cls-9" transform="translate(222.42 256.53)">R</text></g><path class="cls-10" d="M270,148a27.91,27.91,0,0,0-4.7-13.2,4,4,0,0,0-.7-4l-1.8-2.3a20.07,20.07,0,0,0-17.5-29,19.14,19.14,0,0,0-9.4,2.5.71.71,0,0,1-1-.6v35.1a19.1,19.1,0,0,0,10.4,3h.9l2.7,3.5a4,4,0,0,0,2.8,1.6,4.19,4.19,0,0,0,1.6-.1c2.1,2.5,2.8,4.9,1.9,10.7-.7,5-7.1,12.3-9.5,14.7l-.3.3a1.61,1.61,0,0,0-.5,1.1v8.1a1.11,1.11,0,0,0,1.1,1.1h8.1a1.14,1.14,0,0,0,.8-.3l.4-.3C269,168.31,270.8,156.11,270,148Zm-19.2-33.2-9.2,6.1a1.37,1.37,0,1,1-1.5-2.3l2.2-1.4a3,3,0,0,1-.9-3.2,3.08,3.08,0,0,1,3.9-2.1,3.23,3.23,0,0,1,2.1,2l2-1.3a1.42,1.42,0,0,1,1.9.4A1.47,1.47,0,0,1,250.8,114.81Z"/><path class="cls-11" d="M250.2,172.61a.78.78,0,0,0,1.1,0c5.5-5.4,11.8-13.6,11.3-23.3a19.9,19.9,0,0,0-2.7-9.1.82.82,0,0,0-1.2-.2l-.6.5.6-.5h0a.78.78,0,0,0-.2,1,18.41,18.41,0,0,1,2.5,8.4c.3,7.2-3.4,14.7-10.8,21.9-.2.5-.3,1,0,1.3Z"/><path class="cls-10" d="M96.9,179.91l.4.3a1.14,1.14,0,0,0,.8.3h8.1a1.11,1.11,0,0,0,1.1-1.1v-8.1a1.61,1.61,0,0,0-.5-1.1l-.3-.3c-2.4-2.4-8.8-9.6-9.5-14.7-.8-5.8-.1-8.2,1.9-10.7a4.33,4.33,0,0,0,1.6.1,4,4,0,0,0,2.8-1.6l2.7-3.5h.9a20,20,0,0,0,10.4-3v-35.1a.69.69,0,0,1-1,.6,19.14,19.14,0,0,0-9.4-2.5,19.85,19.85,0,0,0-19.6,20,20.16,20.16,0,0,0,2.1,9l-1.8,2.3a4.48,4.48,0,0,0-.7,4A28.33,28.33,0,0,0,82.2,148C81.5,156.11,83.4,168.31,96.9,179.91Zm4.3-67a1.42,1.42,0,0,1,1.9-.4l2,1.3a3.23,3.23,0,0,1,2.1-2,3.08,3.08,0,0,1,3.9,2.1,2.91,2.91,0,0,1-.9,3.2l2.2,1.4a1.37,1.37,0,0,1-1.5,2.3l-9.2-6.1A1.12,1.12,0,0,1,101.2,112.91Z"/><path class="cls-11" d="M102.1,172.61a.78.78,0,0,1-1.1,0c-5.5-5.4-11.8-13.6-11.3-23.3a19.9,19.9,0,0,1,2.7-9.1.82.82,0,0,1,1.2-.2l.6.5-.6-.5h0a.78.78,0,0,1,.2,1,18.41,18.41,0,0,0-2.5,8.4c-.3,7.2,3.4,14.7,10.8,21.9a1,1,0,0,1,0,1.3Z"/><g class="cls-12"><path class="cls-13" d="M135.6,154.91h80.6c.6,0,1-.8,1-1.7s-.5-1.7-1-1.7H135.6c-.6,0-1,.8-1,1.7S135.1,154.91,135.6,154.91Z"/><path class="cls-14" d="M135.4,180.51H216c.6,0,1-.8,1-1.7s-.5-1.7-1-1.7H135.4c-.6,0-1,.8-1,1.7S134.9,180.51,135.4,180.51Z"/><path class="cls-15" d="M135.6,167.71h80.6c.6,0,1-.8,1-1.7s-.5-1.7-1-1.7H135.6c-.6,0-1,.8-1,1.7S135.1,167.71,135.6,167.71Z"/></g><path class="cls-16" d="M165.8,106.81v-.6a6.37,6.37,0,0,0-3.4-5.6V96a5,5,0,0,0-4.2-5H157a4.86,4.86,0,0,0-4.3,4.8v4.8h0a3.55,3.55,0,0,0-.9.4l-.1.1a6.31,6.31,0,0,0-2.4,4.9v.6a6.38,6.38,0,0,0,6.4,6.4h3.8A6.07,6.07,0,0,0,165.8,106.81ZM153.3,96a4.25,4.25,0,1,1,8.5-.1v4.7h-8.5Zm5.1,6.3a1.56,1.56,0,0,1,.7,1.6,1.49,1.49,0,0,1-1.3,1.2l-.3.1-.3-.1a1.49,1.49,0,0,1-1.2-1.2,1.56,1.56,0,0,1,.7-1.6h1.7Zm.1,6.5h-1.9l1-3.6Z"/><path class="cls-17" d="M200.3,91.11a4.78,4.78,0,0,0-5.4,4.8v4.6h-4.7a3.74,3.74,0,0,0-1.6.7l-.1.1a6.49,6.49,0,0,0-2.3,4.8v.6a6.27,6.27,0,0,0,6.3,6.3h3.7a6.27,6.27,0,0,0,6.3-6.3v-.6a5.91,5.91,0,0,0-3.3-5.5,4.08,4.08,0,0,0-.7-.2h-2.9V96a4.31,4.31,0,0,1,3.6-4.3,4.16,4.16,0,0,1,4.7,4.1v4.6h.7V96A5.22,5.22,0,0,0,200.3,91.11Zm-5.2,11.3a1.36,1.36,0,0,1,.7,1.6,1.49,1.49,0,0,1-1.3,1.2l-.3.1-.3-.1a1.49,1.49,0,0,1-1.2-1.2,1.36,1.36,0,0,1,.7-1.6A9.48,9.48,0,0,1,195.1,102.41Zm.1,6.4h-1.9l1-3.5Zm-8.4-2v0Z"/><path class="cls-18" d="M336.8,396.61H14.5a9,9,0,0,1-9-9v-74.7a9,9,0,0,1,9-9H336.8a9,9,0,0,1,9,9v74.7A9,9,0,0,1,336.8,396.61Z"/><text class="cls-19" transform="matrix(1, 0, 0.16, 0.99, 31.36, 362.03)">Anto<tspan class="cls-20" x="149.71" y="0">T</tspan><tspan x="188.54" y="0">ech</tspan></text><text class="cls-21" transform="translate(28.87 385.36)">Herramientas de alta tecnologia para cerrajeros</text></svg>